<svg width="150" height="103" viewBox="0 0 150 103" fill="none" xmlns="http://www.w3.org/2000/svg">
<g clip-path="url(#clip0_101_2662)">
<path d="M36.0499 93.1617H30.2641C30.0638 83.3518 29.5075 74.1228 28.5728 65.4972H28.5283L19.716 93.1617H15.3098L6.542 65.4972H6.49749C5.85214 73.7876 5.42932 83.0166 5.27355 93.1617H-0.000488281C0.333312 80.8267 1.20119 69.2513 2.55865 58.4358H9.72422L18.0692 83.9551H18.1137L26.5033 58.4358H33.3573C34.8928 71.1061 35.7829 82.6814 36.0499 93.1617Z" fill="white"/>
<path d="M61.1516 67.553C58.7928 80.402 55.6773 89.7204 51.8275 95.5304C48.8233 100.022 45.5298 102.257 41.947 102.257C40.9901 102.257 39.8107 101.966 38.4087 101.385V98.3013C39.0985 98.3907 39.8997 98.4577 40.8121 98.4577C42.4811 98.4577 43.8385 97.9885 44.8622 97.0723C46.0861 95.9326 46.7092 94.6812 46.7092 93.2734C46.7092 92.3125 46.2196 90.3461 45.285 87.3517L38.9428 67.553H44.6174L49.1793 82.3685C50.203 85.7204 50.6258 88.0891 50.47 89.4075C52.9624 82.726 54.6981 75.4412 55.6995 67.553H61.1516Z" fill="white"/>
<path d="M86.4983 83.5529C86.4983 86.5026 85.4302 88.9159 83.2716 90.8154C81.113 92.6924 78.2423 93.631 74.615 93.631C71.2325 93.631 67.9613 92.536 64.7791 90.3908L66.27 87.4188C69.0072 88.7819 71.4773 89.4746 73.7026 89.4746C75.7945 89.4746 77.4189 89.0053 78.5984 88.0891C79.7778 87.1729 80.4899 85.8769 80.4899 84.2233C80.4899 82.1674 79.0657 80.4021 76.4398 78.9272C74.0142 77.5864 69.163 74.7932 69.163 74.7932C66.5371 72.8714 65.2241 70.8155 65.2241 67.3966C65.2241 64.581 66.2033 62.3017 68.1616 60.581C70.1199 58.838 72.6567 57.9889 75.7722 57.9889C78.9767 57.9889 81.8919 58.838 84.5178 60.5587L83.1826 63.5307C80.935 62.5698 78.7096 62.1006 76.5288 62.1006C74.7486 62.1006 73.3911 62.5251 72.4342 63.3966C71.4773 64.2458 70.8765 65.3407 70.8765 66.6815C70.8765 68.7374 72.3452 70.5251 75.0378 72.0223C77.4857 73.363 82.4482 76.201 82.4482 76.201C85.1631 78.1227 86.4983 80.1786 86.4983 83.5529Z" fill="white"/>
<path fill-rule="evenodd" clip-rule="evenodd" d="M96.8461 86.2343C95.4441 83.9774 94.7543 80.3349 94.7543 75.3294C94.7543 66.5921 97.4024 62.2122 102.699 62.2122C105.458 62.2122 107.505 63.2625 108.796 65.3407C110.198 67.5976 110.888 71.1954 110.888 76.1339C110.888 84.9383 108.24 89.3628 102.944 89.3628C100.184 89.3628 98.1368 88.3125 96.8461 86.2343ZM117.43 94.0108L111.066 90.86C111.622 90.3907 112.179 89.8991 112.646 89.3181C115.339 86.1226 116.696 81.4076 116.696 75.173C116.696 63.6871 112.201 57.9441 103.233 57.9441C98.8266 57.9441 95.3996 59.3966 92.9295 62.3239C90.2369 65.5194 88.8794 70.2121 88.8794 76.4244C88.8794 82.5249 90.0811 86.9941 92.4622 89.8544C94.643 92.4242 97.9365 93.7203 102.343 93.7203C103.989 93.7203 105.503 93.5192 106.86 93.1169L115.138 97.9437L117.43 94.0108Z" fill="white"/>
<path d="M138.171 93.1617H121.725V58.4358H127.266V88.8936H138.171V93.1617Z" fill="white"/>
<path d="M142.132 93.1617H143.044V89.6311H144.246V88.916H140.885V89.6311H142.132V93.1617ZM149.097 93.1617H149.965V88.916H148.674L147.606 91.821L146.449 88.916H145.203V93.1617H146.026V89.9215H146.071L147.272 93.1617H147.895L149.097 89.9215V93.1617Z" fill="white"/>
<path fill-rule="evenodd" clip-rule="evenodd" d="M145.114 46.8157C141.776 46.7263 139.172 47.0615 137.013 48.0001C136.39 48.2459 135.389 48.2459 135.3 49.0503C135.634 49.3855 135.678 49.9218 135.968 50.3911C136.457 51.2402 137.347 52.3576 138.148 52.9386C139.016 53.6089 139.906 54.2793 140.819 54.8603C142.443 55.8659 144.29 56.4469 145.87 57.4525C146.783 58.0335 147.717 58.7933 148.63 59.4189C149.097 59.7541 149.386 60.2905 149.965 60.5139V60.3798C149.676 60 149.587 59.4637 149.297 59.0391C148.874 58.6145 148.452 58.2346 148.051 57.8324C146.849 56.2011 145.336 54.771 143.712 53.5866C142.376 52.6704 139.439 51.3967 138.905 49.8548C138.905 49.8548 138.86 49.8101 138.816 49.7654C139.728 49.676 140.819 49.3408 141.709 49.095C143.133 48.7151 144.424 48.8045 145.893 48.4246C146.56 48.2459 147.228 48.0447 147.895 47.8436V47.4638C147.139 46.704 146.605 45.6984 145.804 44.9833C143.667 43.1286 141.331 41.3409 138.905 39.8214C137.614 38.9722 135.945 38.4359 134.566 37.7208C134.076 37.475 133.23 37.341 132.941 36.9164C132.184 36.0002 131.762 34.7711 131.228 33.6762C130.026 31.3745 128.846 28.8047 127.801 26.369C127.044 24.7377 126.599 23.1064 125.664 21.5869C121.369 14.4585 116.674 10.1457 109.508 5.89989C107.973 5.02839 106.126 4.64852 104.167 4.17925C103.122 4.13456 102.076 4.04516 101.03 4.02281C100.362 3.73231 99.6946 2.92785 99.116 2.54797C96.7349 1.02843 90.5929 -2.2341 88.8349 2.0787C87.7 4.80494 90.5039 7.48648 91.4608 8.87194C92.1729 9.83283 93.0853 10.9278 93.5972 12.0227C93.8864 12.7378 93.9755 13.4976 94.2648 14.2574C94.9324 16.1121 95.5554 18.1679 96.4456 19.8886C96.9129 20.7601 97.4025 21.6986 97.9811 22.4807C98.3149 22.95 98.8934 23.1511 99.027 23.9109C98.4484 24.76 98.4039 26.0114 98.0701 27.0617C96.5568 31.7991 97.1577 37.6761 99.2718 41.1621C99.9394 42.2124 101.519 44.5141 103.656 43.6426C105.525 42.8828 105.124 40.4918 105.658 38.3912C105.792 37.8773 105.703 37.5421 105.948 37.2069V37.2962C106.526 38.4582 107.127 39.5979 107.661 40.7822C108.952 42.8381 111.222 44.9833 113.091 46.3911C114.092 47.1509 114.894 48.447 116.14 48.9163V48.7822H116.051C115.806 48.4023 115.428 48.2459 115.094 47.9554C114.337 47.1956 113.514 46.2794 112.913 45.4303C111.155 43.0839 109.62 40.4694 108.24 37.7879C107.572 36.4918 106.994 35.0616 106.437 33.7655C106.193 33.2739 106.193 32.5142 105.77 32.246C105.147 33.1622 104.234 33.9667 103.767 35.084C102.966 36.894 102.899 39.1063 102.588 41.4303C102.432 41.475 102.498 41.4303 102.432 41.5197C101.097 41.1845 100.629 39.799 100.14 38.637C98.8934 35.665 98.6709 30.8829 99.7613 27.4416C100.051 26.5701 101.319 23.7992 100.807 22.95C100.562 22.1456 99.7168 21.6986 99.2718 21.0506C98.7377 20.2461 98.1368 19.2406 97.7808 18.3691C96.7794 16.0227 96.2676 13.4082 95.1994 11.0619C94.6876 9.96689 93.8197 8.82723 93.1076 7.82166C92.3065 6.682 91.4386 5.89989 90.8155 4.55912C90.6152 4.08985 90.3259 3.33009 90.6375 2.83848C90.7265 2.50329 90.8822 2.3692 91.216 2.30217C91.7501 1.8329 93.3079 2.43623 93.8419 2.68204C95.3997 3.30773 96.6904 3.91108 97.9811 4.78258C98.5597 5.20716 99.1827 5.98928 99.9394 6.21274H100.829C102.165 6.50324 103.678 6.30212 104.924 6.68201C107.127 7.39709 109.152 8.44735 110.933 9.58701C116.407 13.073 120.924 18.0115 123.973 23.9332C124.485 24.8941 124.685 25.788 125.152 26.7936C126.02 28.8494 127.111 30.9499 128.001 32.9611C128.869 34.9276 129.714 36.9387 130.961 38.5923C131.584 39.4638 134.098 39.9331 135.211 40.4024C136.034 40.7823 137.347 41.1174 138.104 41.5644C139.528 42.4359 140.952 43.4414 142.287 44.4247C142.911 44.9386 145.002 45.9889 145.114 46.8157Z" fill="white"/>
<path fill-rule="evenodd" clip-rule="evenodd" d="M102.521 10.3692C101.809 10.3692 101.319 10.4586 100.807 10.5703V10.6597H100.896C101.23 11.3301 101.809 11.7993 102.231 12.3803C102.565 13.0507 102.854 13.7211 103.188 14.3915C103.233 14.3468 103.277 14.3021 103.277 14.3021C103.856 13.8775 104.167 13.2071 104.167 12.2015C103.923 11.911 103.878 11.6206 103.656 11.3301C103.389 10.9055 102.854 10.7044 102.521 10.3692Z" fill="white"/>
</g>
<defs>
<clipPath id="clip0_101_2662">
<rect width="150" height="102.273" fill="white"/>
</clipPath>
</defs>
</svg>
