<svg width="150" height="60" viewBox="0 0 150 60" fill="none" xmlns="http://www.w3.org/2000/svg">
<g clip-path="url(#clip0_101_2682)">
<path d="M52.2468 16.4006C52.2468 15.2945 51.6756 14.3028 50.7235 13.7307L27.6466 0.381357C26.6946 -0.190758 25.5141 -0.190758 24.6002 0.381357L1.52323 13.7689C0.571211 14.3028 0 15.3326 0 16.4387V43.0993C0 43.6333 0.152323 44.1673 0.418888 44.6249C0.685453 45.0826 1.06626 45.464 1.56131 45.731L24.6382 59.0804C25.5903 59.6525 26.7708 59.6525 27.6847 59.0804L50.7616 45.731C51.7136 45.1971 52.2848 44.1673 52.2848 43.0612L52.2468 16.4006ZM39.4516 19.6044V40.0099C39.3374 41.7262 37.8903 43.023 36.1767 42.9086C36.1386 42.9086 36.1386 42.9086 36.1005 42.9086C34.5392 42.9467 33.0922 42.2602 32.064 41.116L18.7357 25.1349V39.8955C18.7357 41.5355 17.4029 42.8705 15.7654 42.8705C14.128 42.8705 12.7951 41.5355 12.7951 39.8955V19.49C12.9094 17.7737 14.3564 16.4769 16.0701 16.5913C16.1082 16.5913 16.1082 16.5913 16.1462 16.5913C17.7075 16.5532 19.1546 17.2397 20.1828 18.3839L21.0967 19.4519L33.511 34.365V19.6044C33.511 17.9644 34.8439 16.6294 36.4813 16.6294C38.1188 16.6294 39.4516 17.9644 39.4516 19.6044Z" fill="white"/>
<path d="M143.145 19.7189H139.223L134.92 26.5461L130.731 19.7189H126.695L132.711 29.5592L126.618 39.781H130.465L134.768 32.9157L138.957 39.781H142.993L136.9 29.8262L143.145 19.7189Z" fill="white"/>
<path d="M121.63 19.7189V33.3733L113.747 19.7189H110.51V39.781H113.747V26.2028L121.63 39.781H124.905V19.7189H121.63Z" fill="white"/>
<path d="M107.845 19.7189H104.341V39.8192H107.845V19.7189Z" fill="white"/>
<path d="M101.637 26.8512V25.707C101.637 21.8166 98.7814 19.2993 93.7548 19.2993C88.7662 19.2993 85.9101 21.8166 85.9101 25.707V33.7548C85.9101 37.6451 88.8043 40.1624 93.7928 40.1624C98.7814 40.1624 101.637 37.6451 101.637 33.7548V29.0634H93.6405V32.3054H98.134V33.564C98.134 35.6618 96.5347 36.9586 93.7548 36.9586C90.9749 36.9586 89.3755 35.6999 89.3755 33.564V25.8977C89.3755 23.7999 90.9749 22.5032 93.7548 22.5032C96.5347 22.5032 98.134 23.7618 98.134 25.8977V26.8512H101.637Z" fill="white"/>
<path d="M79.9315 19.7189V33.3733L72.0487 19.7189H68.8119V39.781H72.0487V26.2028L79.9315 39.781H83.2445V19.7189H79.9315Z" fill="white"/>
<path d="M147.22 38.9038H147.601V38.0647H147.906C148.058 38.0647 148.21 38.0647 148.324 38.141C148.477 38.2554 148.553 38.4461 148.515 38.6368V38.9038C148.515 38.9038 148.515 38.9038 148.515 38.9419H148.858V38.9038C148.858 38.8657 148.819 38.8275 148.858 38.7894C148.858 38.7131 148.858 38.675 148.858 38.6368V38.4842C148.858 38.3698 148.819 38.2554 148.743 38.141C148.667 38.0265 148.515 37.9503 148.363 37.9121C148.477 37.9121 148.591 37.874 148.667 37.7977C148.819 37.7214 148.896 37.5307 148.858 37.3782C148.896 37.1493 148.743 36.9205 148.515 36.8442C148.324 36.7679 148.134 36.7679 147.944 36.7679H147.182L147.22 38.9038ZM148.324 37.7214C148.21 37.7596 148.096 37.7596 147.982 37.7596H147.639V36.9967H147.944C148.096 36.9967 148.248 36.9967 148.401 37.073C148.515 37.1493 148.553 37.2637 148.553 37.3782C148.553 37.5307 148.439 37.6833 148.324 37.7214ZM149.429 36.4246C149.048 36.0432 148.553 35.8525 148.02 35.8525C146.954 35.8525 146.078 36.7298 146.078 37.8358C146.078 38.9038 146.954 39.781 148.02 39.781C149.086 39.781 150 38.9038 150 37.8358C150 37.3019 149.772 36.806 149.429 36.4246ZM149.2 36.6535C149.505 36.9586 149.695 37.4163 149.695 37.8358C149.695 38.7512 148.934 39.514 148.02 39.514C147.563 39.514 147.144 39.3233 146.801 39.0182C146.497 38.7131 146.306 38.2554 146.306 37.8358C146.306 36.9205 147.068 36.1576 147.982 36.1576C148.477 36.1195 148.896 36.3102 149.2 36.6535Z" fill="white"/>
</g>
<defs>
<clipPath id="clip0_101_2682">
<rect width="150" height="59.5" fill="white"/>
</clipPath>
</defs>
</svg>
