<svg width="166" height="80" viewBox="0 0 166 80" fill="none" xmlns="http://www.w3.org/2000/svg">
<g opacity="0.8" clip-path="url(#clip0_94_444)" filter="url(#filter0_d_94_444)">
<path d="M150.536 33.4722C150.147 33.4722 149.769 33.5525 149.435 33.7419L138.845 39.8575C138.159 40.2525 137.743 40.9981 137.743 41.7915V54.0006C137.743 54.7934 138.159 55.5381 138.845 55.934L141.61 57.5306C142.954 58.1928 143.449 58.1825 144.061 58.1825C146.05 58.1825 147.186 56.9753 147.186 54.8775V42.8256C147.186 42.6553 147.039 42.5334 146.871 42.5334H145.545C145.375 42.5334 145.23 42.6553 145.23 42.8256V54.8775C145.23 55.8072 144.261 56.7425 142.69 55.9565L139.811 54.2703C139.71 54.215 139.631 54.1172 139.631 54.0006V41.7912C139.631 41.6756 139.709 41.5578 139.811 41.499L150.379 35.4062C150.427 35.3783 150.481 35.3636 150.536 35.3636C150.592 35.3636 150.646 35.3783 150.694 35.4062L161.261 41.4994C161.362 41.56 161.441 41.6722 161.441 41.7919V54.0009C161.441 54.1175 161.383 54.2369 161.284 54.2931L150.694 60.3862C150.603 60.4403 150.478 60.4403 150.379 60.3862L147.658 58.7675C147.617 58.745 147.571 58.7333 147.523 58.7333C147.476 58.7333 147.43 58.745 147.389 58.7675C146.638 59.1931 146.496 59.2425 145.792 59.4869C145.619 59.5475 145.355 59.6415 145.882 59.9369L149.435 62.0275C149.769 62.2207 150.15 62.3217 150.536 62.32C150.923 62.3224 151.303 62.2215 151.638 62.0278L162.228 55.9344C162.914 55.5359 163.33 54.7937 163.33 54.0009V41.7915C163.33 40.9984 162.914 40.254 162.228 39.8581L151.638 33.7425C151.306 33.5528 150.925 33.4725 150.536 33.4725L150.536 33.4722Z" fill="white"/>
<path d="M153.37 42.1962C150.354 42.1962 148.558 43.4796 148.558 45.614C148.558 47.929 150.341 48.5652 153.235 48.8515C156.698 49.1905 156.967 49.699 156.967 50.3805C156.967 51.5627 156.025 52.0668 153.797 52.0668C150.998 52.0668 150.383 51.368 150.177 49.9759C150.153 49.8265 150.038 49.7059 149.885 49.7059H148.513C148.344 49.7059 148.199 49.8515 148.199 50.0209C148.199 51.803 149.168 53.9105 153.797 53.9105C157.148 53.9105 159.081 52.5952 159.081 50.2905C159.081 48.0062 157.52 47.3927 154.269 46.963C150.985 46.5284 150.672 46.3155 150.672 45.5465C150.672 44.9115 150.937 44.0621 153.37 44.0621C155.543 44.0621 156.346 44.5309 156.675 45.9962C156.704 46.1337 156.825 46.2434 156.967 46.2434H158.339C158.424 46.2434 158.505 46.1915 158.564 46.1309C158.621 46.0662 158.662 45.9934 158.654 45.9062C158.441 43.383 156.759 42.1962 153.37 42.1962Z" fill="white"/>
<path d="M88.2775 17.4633C88.1591 17.4634 88.0428 17.4943 87.94 17.553C87.8379 17.6127 87.753 17.6981 87.6939 17.8006C87.6348 17.9031 87.6034 18.0193 87.6028 18.1377V35.3383C87.6028 35.507 87.5244 35.6583 87.3781 35.743C87.3065 35.7847 87.225 35.8067 87.142 35.8067C87.0591 35.8067 86.9776 35.7847 86.9059 35.743L84.0953 34.1242C83.8903 34.0056 83.6577 33.9431 83.4208 33.9431C83.1839 33.9431 82.9513 34.0056 82.7463 34.1242L71.5266 40.5995C71.1072 40.8417 70.8522 41.307 70.8522 41.7914V54.7423C70.8522 55.2261 71.1075 55.6692 71.5266 55.9114L82.7463 62.387C82.9512 62.506 83.1839 62.5686 83.4208 62.5686C83.6577 62.5686 83.8904 62.506 84.0953 62.387L95.315 55.9114C95.5204 55.7932 95.691 55.6228 95.8095 55.4175C95.9279 55.2123 95.9901 54.9793 95.9897 54.7423V22.4548C95.9894 22.2123 95.9247 21.9741 95.8023 21.7648C95.6799 21.5554 95.5041 21.3822 95.2928 21.263L88.6147 17.5305C88.51 17.472 88.3938 17.4617 88.2775 17.4633ZM16.1025 33.6295C15.8888 33.638 15.6875 33.6755 15.4956 33.7867L4.27564 40.2623C4.07011 40.3804 3.89947 40.5507 3.78103 40.7561C3.6626 40.9614 3.60058 41.1944 3.60126 41.4314L3.62376 58.8123C3.62376 59.0539 3.74845 59.2786 3.96095 59.3967C4.06283 59.4579 4.17944 59.4903 4.29829 59.4903C4.41715 59.4903 4.53376 59.4579 4.63564 59.3967L11.291 55.5745C11.7125 55.3239 11.9878 54.8883 11.9878 54.4052V46.2883C11.9878 45.8039 12.2425 45.3595 12.6625 45.1189L15.4953 43.4777C15.7001 43.3586 15.9331 43.2964 16.17 43.2977C16.4013 43.2977 16.6388 43.3555 16.8444 43.4777L19.6775 45.1189C19.8832 45.2369 20.054 45.4072 20.1725 45.6126C20.2911 45.818 20.353 46.0511 20.3522 46.2883V54.4048C20.3522 54.888 20.6303 55.3267 21.0491 55.5742L27.7044 59.3967C27.8063 59.4579 27.9229 59.4903 28.0417 59.4903C28.1606 59.4903 28.2772 59.4579 28.3791 59.3967C28.4816 59.3374 28.5668 59.2521 28.626 59.1495C28.6852 59.0469 28.7165 58.9305 28.7166 58.812L28.7385 41.4314C28.7398 41.1942 28.678 40.961 28.5595 40.7556C28.441 40.5501 28.27 40.3799 28.0641 40.2623L16.8444 33.7867C16.6547 33.6755 16.4528 33.6383 16.2375 33.6295H16.1025ZM116.923 33.7867C116.688 33.7867 116.458 33.8461 116.248 33.9667L105.028 40.4423C104.823 40.5605 104.652 40.7309 104.534 40.9362C104.415 41.1414 104.353 41.3744 104.354 41.6114V54.5623C104.354 55.0495 104.628 55.4908 105.051 55.7317L116.181 62.0723C116.592 62.3067 117.093 62.3245 117.507 62.0942L124.253 58.3395C124.467 58.2208 124.611 57.9989 124.612 57.7552C124.613 57.6365 124.583 57.5196 124.523 57.4168C124.464 57.314 124.378 57.2289 124.275 57.1705L112.988 50.6948C112.777 50.5742 112.628 50.3302 112.628 50.0877V46.0408C112.628 45.7986 112.778 45.5767 112.988 45.4561L116.495 43.4323C116.598 43.373 116.714 43.3418 116.833 43.3418C116.951 43.3418 117.067 43.373 117.17 43.4323L120.677 45.4561C120.78 45.5151 120.865 45.6003 120.925 45.7029C120.984 45.8055 121.015 45.922 121.015 46.0405V49.2333C121.014 49.3518 121.045 49.4682 121.105 49.5709C121.164 49.6735 121.249 49.7586 121.352 49.8177C121.562 49.9392 121.817 49.9395 122.026 49.8177L128.749 45.9061C128.954 45.7874 129.125 45.6169 129.243 45.4117C129.362 45.2064 129.424 44.9737 129.424 44.7367V41.6117C129.424 41.1289 129.168 40.6848 128.749 40.4423L117.597 33.9667C117.392 33.8481 117.159 33.7858 116.923 33.7867ZM83.3756 43.4552C83.4344 43.4552 83.5031 43.4695 83.5556 43.4998L87.4006 45.7258C87.505 45.7861 87.5806 45.8977 87.5806 46.018V50.4698C87.5806 50.5908 87.5056 50.702 87.4006 50.7623L83.5556 52.9883C83.5043 53.0176 83.4462 53.033 83.387 53.033C83.3279 53.033 83.2698 53.0176 83.2185 52.9883L79.3738 50.7623C79.2691 50.7017 79.1938 50.5908 79.1938 50.4698V46.018C79.1938 45.8973 79.2694 45.7867 79.3738 45.7258L83.2185 43.5002C83.2657 43.4708 83.3203 43.4553 83.3759 43.4555L83.3756 43.4552Z" fill="white"/>
<path d="M49.8067 33.7192C49.5729 33.7192 49.3417 33.7786 49.1323 33.8992L37.9126 40.3524C37.4929 40.5939 37.2379 41.0602 37.2379 41.5439V54.4949C37.2379 54.9792 37.4932 55.4217 37.9126 55.6642L49.1323 62.1396C49.3372 62.2586 49.5699 62.3213 49.8068 62.3213C50.0438 62.3213 50.2765 62.2586 50.4814 62.1396L61.701 55.6642C61.9064 55.5459 62.077 55.3755 62.1954 55.1702C62.3138 54.9649 62.3759 54.7319 62.3754 54.4949V41.5439C62.3754 41.0596 62.1204 40.5939 61.701 40.3524L50.4814 33.8992C50.2763 33.7808 50.0435 33.7187 49.8067 33.7192ZM116.9 45.2764C116.855 45.2764 116.806 45.2764 116.765 45.2989L114.607 46.558C114.567 46.5804 114.533 46.6129 114.509 46.6524C114.486 46.6919 114.473 46.7369 114.472 46.783V49.2561C114.472 49.3492 114.526 49.4346 114.607 49.4811L116.765 50.7177C116.846 50.7646 116.933 50.7646 117.013 50.7177L119.171 49.4808C119.211 49.4583 119.245 49.4258 119.268 49.3864C119.292 49.347 119.305 49.3021 119.306 49.2561V46.7827C119.305 46.7367 119.292 46.6918 119.268 46.6524C119.245 46.613 119.211 46.5805 119.171 46.558L117.013 45.2986C116.973 45.2752 116.945 45.2764 116.9 45.2764Z" fill="white"/>
</g>
<defs>
<filter id="filter0_d_94_444" x="0.666616" y="0" width="165.333" height="85.3333" filterUnits="userSpaceOnUse" color-interpolation-filters="sRGB">
<feFlood flood-opacity="0" result="BackgroundImageFix"/>
<feColorMatrix in="SourceAlpha" type="matrix" values="0 0 0 0 0 0 0 0 0 0 0 0 0 0 0 0 0 0 127 0" result="hardAlpha"/>
<feOffset dy="2.66667"/>
<feGaussianBlur stdDeviation="1.33333"/>
<feComposite in2="hardAlpha" operator="out"/>
<feColorMatrix type="matrix" values="0 0 0 0 0 0 0 0 0 0 0 0 0 0 0 0 0 0 0.25 0"/>
<feBlend mode="normal" in2="BackgroundImageFix" result="effect1_dropShadow_94_444"/>
<feBlend mode="normal" in="SourceGraphic" in2="effect1_dropShadow_94_444" result="shape"/>
</filter>
<clipPath id="clip0_94_444">
<rect width="160" height="80" fill="white" transform="translate(3.33328)"/>
</clipPath>
</defs>
</svg>
