<svg width="151" height="48" viewBox="0 0 151 48" fill="none" xmlns="http://www.w3.org/2000/svg">
<g clip-path="url(#clip0_101_2699)">
<path fill-rule="evenodd" clip-rule="evenodd" d="M0.799834 32.6384C0.34051 31.9139 0.333571 30.991 0.781946 30.2595L17.6641 2.72132C18.6031 1.18965 20.8704 1.32358 21.6226 2.95512L37.0453 36.4105C37.6174 37.6519 36.9588 39.1124 35.6494 39.5052L11.6583 46.7025C10.6931 46.992 9.65302 46.604 9.11346 45.7529L0.799834 32.6384ZM19.6119 10.7733C19.7746 9.96315 20.8846 9.84633 21.2124 10.6048L31.8508 35.2214C32.0509 35.6849 31.8018 36.2194 31.3179 36.3637L14.742 41.3119C14.1327 41.4937 13.549 40.9614 13.6742 40.3379L19.6119 10.7733ZM81.2751 36.188H85.9881V18.9129H81.2751V36.188ZM81.0744 14.4475C81.0744 12.9132 81.9301 12.1455 83.6399 12.1455C85.3494 12.1455 86.2049 12.9132 86.2049 14.4475C86.2049 15.1791 85.9911 15.7482 85.5638 16.1552C85.1361 16.5623 84.4949 16.7652 83.6399 16.7652C81.9301 16.7652 81.0744 15.9926 81.0744 14.4475ZM145.735 28.1845L143.912 28.2462C142.542 28.2877 141.522 28.5354 140.852 28.9882C140.182 29.4417 139.848 30.1314 139.848 31.0589C139.848 32.3874 140.61 33.052 142.135 33.052C143.226 33.052 144.1 32.7382 144.754 32.1092C145.408 31.4812 145.735 30.6469 145.735 29.6059V28.1845ZM147.126 36.1887L146.214 33.8399H146.09C145.297 34.8394 144.481 35.5324 143.641 35.9187C142.802 36.3049 141.707 36.4975 140.358 36.4975C138.699 36.4975 137.394 36.0239 136.441 35.0762C135.488 34.129 135.012 32.7792 135.012 31.0277C135.012 29.1945 135.653 27.8425 136.935 26.9717C138.218 26.1014 140.152 25.6197 142.738 25.5269L145.735 25.4342V24.6769C145.735 22.926 144.839 22.0502 143.046 22.0502C141.666 22.0502 140.043 22.467 138.179 23.3019L136.619 20.1187C138.607 19.0789 140.812 18.5579 143.232 18.5579C145.55 18.5579 147.327 19.063 148.563 20.0724C149.799 21.0819 150.417 22.6172 150.417 24.6769V36.1887H147.126ZM121.251 36.1887H116.538V26.0985C116.538 24.8524 116.329 23.9179 115.912 23.2942C115.495 22.671 114.838 22.359 113.942 22.359C112.737 22.359 111.861 22.8025 111.315 23.688C110.769 24.5742 110.496 26.032 110.496 28.0612V36.1887H105.783V18.9134H109.384L110.017 21.1232H110.28C110.743 20.3304 111.413 19.7095 112.289 19.2615C113.164 18.813 114.169 18.5889 115.302 18.5889C117.888 18.5889 119.638 19.4339 120.556 21.1232H120.972C121.436 20.3195 122.119 19.6964 123.02 19.2534C123.922 18.8104 124.939 18.5889 126.072 18.5889C128.029 18.5889 129.51 19.0914 130.514 20.0957C131.519 21.1002 132.021 22.7099 132.021 24.9239V36.1887H127.292V26.0985C127.292 24.8524 127.083 23.9179 126.667 23.2942C126.249 22.671 125.593 22.359 124.696 22.359C123.543 22.359 122.68 22.7715 122.108 23.5954C121.537 24.4197 121.251 25.7275 121.251 27.5199V36.1887ZM100.734 35.107C101.965 34.18 102.581 32.8307 102.581 31.0585C102.581 30.2042 102.432 29.467 102.133 28.8489C101.834 28.2307 101.37 27.685 100.742 27.2109C100.114 26.7374 99.1248 26.2277 97.7748 25.6815C96.2608 25.0737 95.2798 24.6149 94.8313 24.306C94.3839 23.9972 94.1591 23.6317 94.1591 23.2089C94.1591 22.457 94.8548 22.081 96.2454 22.081C97.0279 22.081 97.7956 22.2 98.5474 22.4362C99.2993 22.6735 100.108 22.9769 100.974 23.348L102.395 19.9489C100.428 19.0425 98.4034 18.5892 96.3224 18.5892C94.1383 18.5892 92.4519 19.0087 91.2624 19.8484C90.0719 20.688 89.4771 21.8754 89.4771 23.4097C89.4771 24.306 89.6191 25.0612 89.9028 25.6739C90.1854 26.2867 90.6388 26.83 91.2624 27.3037C91.8849 27.7779 92.8616 28.2929 94.1901 28.8489C95.1171 29.2405 95.8593 29.5832 96.4151 29.8767C96.9718 30.1704 97.3629 30.4334 97.5899 30.6647C97.8163 30.8965 97.9298 31.1977 97.9298 31.5687C97.9298 32.5574 97.0743 33.0517 95.3643 33.0517C94.5301 33.0517 93.5644 32.9125 92.4676 32.6349C91.3699 32.3565 90.3839 32.0117 89.5083 31.5992V35.4934C90.2809 35.8229 91.1103 36.0727 91.9963 36.243C92.8823 36.4127 93.9528 36.4977 95.2099 36.4977C97.6614 36.4977 99.5028 36.034 100.734 35.107ZM78.7751 18.7279C78.3528 18.6352 77.8224 18.5889 77.1834 18.5889C76.1119 18.5889 75.1206 18.885 74.2094 19.4775C73.2971 20.0702 72.5736 20.8504 72.0378 21.8182H71.8064L71.1108 18.9134H67.5414V36.1887H72.2544V27.3965C72.2544 26.0059 72.6739 24.9239 73.5131 24.1514C74.3534 23.3787 75.5248 22.9924 77.0291 22.9924C77.5753 22.9924 78.0384 23.0442 78.4199 23.1469L78.7751 18.7279ZM53.6699 24.2285H55.2461C56.7193 24.2285 57.8209 23.9377 58.5526 23.3555C59.2843 22.7739 59.6498 21.926 59.6498 20.8135C59.6498 19.6912 59.3431 18.8619 58.7304 18.326C58.1171 17.7902 57.1569 17.5223 55.8484 17.5223H53.6699V24.2285ZM64.4861 20.6439C64.4861 23.0752 63.7266 24.9345 62.2066 26.2217C60.6876 27.5099 58.5269 28.1532 55.7253 28.1532H53.6699V36.1884H48.8799V13.5978H56.0958C58.8363 13.5978 60.9194 14.1876 62.3463 15.3672C63.7731 16.5468 64.4861 18.306 64.4861 20.6439Z" fill="white"/>
</g>
<defs>
<clipPath id="clip0_101_2699">
<rect width="150" height="46.6667" fill="white" transform="translate(0.450439 0.959534)"/>
</clipPath>
</defs>
</svg>
