<svg width="161" height="80" viewBox="0 0 161 80" fill="none" xmlns="http://www.w3.org/2000/svg">
<g opacity="0.8">
<path d="M43.3022 46.1718C46.7293 46.1718 49.5074 43.3937 49.5074 39.9666C49.5074 36.5396 46.7293 33.7615 43.3022 33.7615C39.8752 33.7615 37.0971 36.5396 37.0971 39.9666C37.0971 43.3937 39.8752 46.1718 43.3022 46.1718Z" fill="white"/>
<path d="M43.3022 62.7856C48.173 67.5229 52.977 70.3252 56.8469 70.3252C58.1146 70.3252 59.3156 70.0583 60.3164 69.4578C63.786 67.4562 65.0537 62.452 63.8527 55.3127C63.6525 54.045 63.3856 52.7773 63.052 51.4428C64.3865 51.0425 65.5875 50.6422 66.7885 50.2418C73.5274 47.6397 77.2639 44.0367 77.2639 40.1C77.2639 36.0967 73.5274 32.4937 66.7885 29.9583C65.5875 29.4912 64.3865 29.0909 63.052 28.7573C63.3856 27.4228 63.6525 26.1551 63.8527 24.8874C64.987 17.6146 63.7193 12.5437 60.2497 10.5421C59.2489 9.94157 58.0479 9.67468 56.7801 9.67468C52.977 9.67468 48.1062 12.477 43.2355 17.2143C38.4315 12.477 33.6275 9.67468 29.7576 9.67468C28.4899 9.67468 27.2889 9.94157 26.2881 10.5421C22.8185 12.5437 21.5508 17.5479 22.7518 24.6872C22.9519 25.9549 23.2188 27.2226 23.5525 28.5571C22.218 28.9574 21.017 29.3578 19.816 29.7581C13.0771 32.3603 9.34061 35.9633 9.34061 39.8999C9.34061 43.9032 13.0771 47.5062 19.816 50.0417C21.017 50.5087 22.218 50.909 23.5525 51.2427C23.2188 52.5771 22.9519 53.8448 22.7518 55.1125C21.6175 62.2518 22.8852 67.3227 26.2881 69.2577C27.2889 69.8582 28.4899 70.1251 29.7576 70.1251C33.6275 70.2585 38.4315 67.4562 43.3022 62.7856ZM39.5658 53.7781C40.7668 53.8448 42.0345 53.8448 43.3022 53.8448C44.57 53.8448 45.8377 53.8448 47.0387 53.7781C45.8377 55.3794 44.57 56.8473 43.3022 58.2485C42.0345 56.8473 40.7668 55.3794 39.5658 53.7781ZM31.2922 46.9057C31.9595 48.04 32.56 49.1075 33.2939 50.1751C31.2255 49.9082 29.2906 49.5746 27.4223 49.1743C28.0228 47.3728 28.6901 45.5045 29.4907 43.6363C30.0245 44.7039 30.625 45.8382 31.2922 46.9057ZM27.4223 30.8256C29.2906 30.4253 31.2255 30.0917 33.2939 29.8248C32.6267 30.8924 31.9595 31.9599 31.2922 33.0942C30.625 34.2285 30.0245 35.296 29.4907 36.4303C28.6233 34.4954 27.9561 32.6271 27.4223 30.8256ZM31.0921 39.9666C31.9595 38.1651 32.8936 36.3636 33.9611 34.5621C34.962 32.8273 36.0962 31.0925 37.2305 29.3578C39.2322 29.2243 41.2339 29.1576 43.3022 29.1576C45.4374 29.1576 47.439 29.2243 49.374 29.3578C50.575 31.0925 51.6425 32.8273 52.6434 34.5621C53.7109 36.3636 54.645 38.1651 55.5124 39.9666C54.645 41.7681 53.7109 43.5696 52.6434 45.3711C51.6425 47.1059 50.5082 48.8407 49.374 50.5754C47.3723 50.7089 45.3706 50.7756 43.3022 50.7756C41.1671 50.7756 39.1655 50.7089 37.2305 50.5754C36.0295 48.8407 34.962 47.1059 33.9611 45.3711C32.8936 43.5696 31.9595 41.7681 31.0921 39.9666ZM57.1805 36.3636L55.379 33.0275C54.7117 31.8932 54.1112 30.8256 53.3773 29.7581C55.4457 30.025 57.3806 30.3586 59.2489 30.7589C58.6484 32.6271 57.9811 34.4954 57.1805 36.3636ZM57.1805 43.5696C57.9811 45.4378 58.6484 47.306 59.2489 49.1075C57.3806 49.5079 55.4457 49.8415 53.3773 50.1084C54.0445 49.0408 54.7117 47.9733 55.379 46.839C55.9795 45.8382 56.58 44.7039 57.1805 43.5696ZM58.7151 66.7222C58.1813 67.0558 57.5141 67.1893 56.7801 67.1893C53.5107 67.1893 49.4407 64.5204 45.4374 60.5171C47.3723 58.4487 49.2405 56.1134 51.1087 53.5112C54.2447 53.2443 57.2472 52.7773 60.0495 52.11C60.3831 53.311 60.5833 54.512 60.7835 55.713C61.7176 61.3844 60.9836 65.4545 58.7151 66.7222ZM62.1846 31.5596C69.6575 33.6947 74.1279 36.9641 74.1279 39.9666C74.1279 42.5688 71.0587 45.1709 65.6542 47.2393C64.5866 47.6397 63.3856 48.04 62.1846 48.3736C61.3173 45.638 60.2497 42.8357 58.9153 39.9666C60.2497 37.0975 61.384 34.2952 62.1846 31.5596ZM56.8469 12.7439C57.5808 12.7439 58.1813 12.8774 58.7818 13.211C60.9836 14.4787 61.7843 18.482 60.8502 24.2201C60.65 25.3544 60.3831 26.5554 60.1163 27.8231C57.3139 27.2226 54.3114 26.7556 51.1755 26.422C49.374 23.8198 47.439 21.4845 45.5041 19.4161C49.5074 15.4795 53.5775 12.7439 56.8469 12.7439ZM47.0387 26.1551C45.8377 26.0884 44.57 26.0884 43.3022 26.0884C42.0345 26.0884 40.7668 26.0884 39.5658 26.1551C40.7668 24.5537 42.0345 23.0859 43.3022 21.6847C44.57 23.0859 45.8377 24.6205 47.0387 26.1551ZM27.8894 13.211C28.4232 12.8774 29.0904 12.7439 29.8243 12.7439C33.0937 12.7439 37.1638 15.4128 41.1671 19.4161C39.2322 21.4845 37.364 23.8198 35.4957 26.422C32.3598 26.6889 29.3573 27.1559 26.555 27.8231C26.2213 26.6221 26.0212 25.4211 25.821 24.2201C24.8869 18.5487 25.6208 14.5454 27.8894 13.211ZM24.4198 48.3736C16.9469 46.2385 12.4766 42.9691 12.4766 39.9666C12.4766 37.3644 15.5458 34.7623 20.9503 32.6939C22.0178 32.2935 23.2188 31.8932 24.4198 31.5596C25.2872 34.2952 26.3548 37.0975 27.6892 39.9666C26.3548 42.8357 25.2205 45.7047 24.4198 48.3736ZM25.821 55.713C26.0212 54.5788 26.2881 53.3778 26.555 52.11C29.3573 52.7105 32.3598 53.1776 35.4957 53.5112C37.2972 56.1134 39.2322 58.4487 41.1671 60.5171C37.1638 64.4537 33.0937 67.1893 29.8243 67.1893C29.0904 67.1893 28.4899 67.0558 27.8894 66.7222C25.6208 65.4545 24.8869 61.3844 25.821 55.713Z" fill="white"/>
<path d="M99.6827 39.7579C101.151 37.9564 101.217 35.9547 100.417 33.9531C99.6159 31.9514 97.9479 31.0173 95.8795 30.9506C93.4108 30.8838 90.8753 30.9506 88.4066 30.9506H87.9395V48.2316H89.9412V41.6928H93.0772C93.4775 41.6928 93.8111 41.8263 94.0113 42.1599L98.0146 48.3651C98.0813 48.4985 98.2815 48.6987 98.4149 48.6987H101.017C99.4158 46.23 97.8812 43.8947 96.2798 41.4927C97.681 41.2925 98.882 40.8255 99.6827 39.7579ZM89.9412 39.6244V33.0189H90.6752C92.2098 33.0189 93.8111 32.9522 95.3457 33.0857C97.1472 33.1524 98.4149 34.5536 98.4149 36.3551C98.4149 38.1566 96.9471 39.5577 95.1455 39.6244C93.5442 39.6912 91.9429 39.6244 89.9412 39.6244ZM115.763 40.4918C114.695 35.8213 110.425 34.6203 107.156 36.0882C104.62 37.2224 103.486 39.4243 103.419 42.1599C103.352 44.2283 103.953 46.0965 105.554 47.4977C107.356 49.099 109.558 49.2992 111.826 48.8988C113.094 48.632 114.228 48.0315 115.096 47.0973C114.762 46.6303 114.428 46.1632 114.095 45.7629C112.226 47.3642 110.158 47.898 107.89 46.8305C106.422 46.0965 105.688 44.295 105.554 42.9606H115.896V42.0932C115.963 41.4927 115.896 40.9589 115.763 40.4918ZM105.688 41.5594C105.488 39.5577 107.489 37.4226 109.691 37.4226C112.226 37.3559 113.828 38.8905 113.895 41.5594H105.688ZM126.171 35.7546C125.171 35.5544 124.103 35.4877 123.102 35.5544C121.501 35.6878 120.1 36.4218 118.965 37.6228C119.299 38.0898 119.566 38.5569 119.966 39.0907C120.1 38.9572 120.233 38.8238 120.367 38.7571C121.434 37.7562 122.702 37.2224 124.236 37.3559C125.437 37.4226 126.572 37.8229 126.905 39.0239C127.172 39.9581 127.106 40.9589 127.172 41.9597C126.972 41.9597 126.905 41.893 126.839 41.8263C125.237 40.4918 123.436 40.2249 121.501 40.692C119.699 41.1591 118.565 42.5602 118.432 44.3617C118.298 46.4301 119.232 47.9647 121.034 48.6987C122.168 49.1657 123.436 49.1657 124.637 48.8988C125.571 48.6987 125.971 48.1649 127.306 47.431V48.2983H129.174C129.174 45.6295 129.241 42.3601 129.174 39.2908C129.174 37.3559 128.04 36.1549 126.171 35.7546ZM127.106 44.1616C127.039 44.3617 127.106 44.5619 127.106 44.7621C127.106 46.1632 126.772 46.6303 125.437 47.1641C124.503 47.4977 123.503 47.6311 122.502 47.2975C121.367 46.9639 120.567 45.9631 120.567 44.8288C120.5 43.6945 121.234 42.5602 122.368 42.2266C123.903 41.6928 125.304 42.0264 126.572 42.9606C126.972 43.2942 127.239 43.6278 127.106 44.1616ZM137.514 37.5561C139.249 37.0223 140.85 37.3559 142.051 38.8238L142.251 38.9572C142.719 38.5569 143.119 38.1566 143.653 37.6895C143.452 37.4893 143.386 37.3559 143.252 37.1557C141.317 35.0873 137.514 34.8204 135.179 36.4885C131.91 38.8905 131.976 43.5611 133.578 46.0298C135.112 48.3651 137.314 49.1657 139.916 48.8321C141.451 48.632 142.719 47.898 143.719 46.6303C143.252 46.23 142.785 45.8296 142.318 45.3626C142.185 45.496 142.118 45.5627 142.051 45.6962C140.25 47.6978 137.247 47.4977 135.646 45.3626C134.712 44.0948 134.512 42.627 134.779 41.1591C134.912 39.491 135.779 38.1566 137.514 37.5561ZM151.392 46.6303C151.259 46.697 151.192 46.7637 151.192 46.7637C150.658 47.1641 150.125 47.2308 149.524 47.0306C148.924 46.7637 148.857 46.23 148.79 45.6962V38.0898C148.79 37.9564 148.79 38.2233 148.857 37.5561H151.392V35.5544H148.724V32.2183H146.722V35.8213H144.987C144.854 35.8213 144.653 35.9547 144.653 36.0882C144.587 36.5552 144.653 36.8888 144.653 37.5561H146.789V46.0965C146.789 47.1641 147.055 48.0982 147.99 48.632C148.99 49.2325 150.925 49.099 151.793 48.3651C151.926 48.2983 151.993 48.0315 151.993 47.9647C151.793 47.5644 151.593 47.0973 151.392 46.6303Z" fill="white"/>
</g>
</svg>
