<svg width="152" height="80" viewBox="0 0 152 80" fill="none" xmlns="http://www.w3.org/2000/svg">
<path d="M78.8244 36.3163C78.8244 31.9558 73.3637 27.8234 64.9914 25.2607C66.9235 16.7274 66.0649 9.93837 62.281 7.76478C61.4089 7.25493 60.3894 7.01341 59.2757 7.01341V10.0055C59.8928 10.0055 60.3894 10.1262 60.8052 10.3543C62.6299 11.4008 63.4217 15.3857 62.8042 20.511C62.6569 21.7723 62.4154 23.1006 62.1202 24.4557C59.4902 23.8117 56.619 23.3152 53.6002 22.9932C51.789 20.511 49.9106 18.257 48.0186 16.2847C52.3926 12.2193 56.4984 9.99201 59.2892 9.99201V7C55.5993 7 50.7692 9.62977 45.8855 14.1916C41.0015 9.65659 36.1715 7.05367 32.4818 7.05367V10.0457C35.2591 10.0457 39.3781 12.2595 43.7521 16.2981C41.8736 18.2704 39.9952 20.511 38.2107 22.9932C35.1784 23.3152 32.3072 23.8117 29.6775 24.4691C29.3688 23.1274 29.1408 21.8259 28.9797 20.5781C28.3493 15.4528 29.1273 11.4679 30.9388 10.408C31.3411 10.1664 31.8644 10.0591 32.4818 10.0591V7.06708C31.3546 7.06708 30.3349 7.3086 29.4495 7.81845C25.6792 9.99201 24.834 16.7677 26.7793 25.2741C18.4339 27.8502 13 31.9693 13 36.3163C13 40.6771 18.4608 44.8096 26.833 47.3721C24.9009 55.9055 25.7596 62.6944 29.5434 64.868C30.4156 65.3778 31.435 65.6193 32.5622 65.6193C36.2519 65.6193 41.0822 62.9896 45.9659 58.4278C50.8496 62.9629 55.68 65.5659 59.3696 65.5659C60.4965 65.5659 61.5163 65.3244 62.4019 64.8143C66.172 62.6407 67.0174 55.865 65.0718 47.3589C73.3905 44.7961 78.8244 40.6636 78.8244 36.3163ZM61.3554 27.3672C60.8589 29.0981 60.2418 30.8824 59.5439 32.6669C58.994 31.5937 58.417 30.5202 57.7864 29.4468C57.1693 28.3735 56.5116 27.327 55.8543 26.3073C57.7594 26.589 59.5976 26.9379 61.3554 27.3672ZM55.2101 41.6564C54.1637 43.4679 53.0905 45.1852 51.9768 46.7819C49.9775 46.9562 47.9517 47.0501 45.9122 47.0501C43.8862 47.0501 41.8601 46.9562 39.8746 46.7951C38.7609 45.1984 37.674 43.4946 36.6275 41.6966C35.6077 39.9391 34.6822 38.1545 33.8367 36.3568C34.6687 34.5588 35.6077 32.7608 36.6143 31.0033C37.6608 29.192 38.7339 27.4745 39.8476 25.8779C41.8469 25.7035 43.8727 25.6096 45.9122 25.6096C47.9382 25.6096 49.9643 25.7035 51.9498 25.8645C53.0635 27.4611 54.1505 29.165 55.1969 30.9631C56.2167 32.7206 57.1423 34.5051 57.9877 36.3031C57.1423 38.1008 56.2167 39.8989 55.2101 41.6564ZM59.5439 39.9124C60.2482 41.6609 60.8662 43.4429 61.3956 45.2521C59.6378 45.6814 57.7864 46.0439 55.8678 46.3256C56.5251 45.2926 57.1825 44.2326 57.7999 43.1457C58.417 42.0725 58.994 40.9855 59.5439 39.9124ZM45.9389 54.2284C44.6911 52.9401 43.4433 51.5045 42.2091 49.9348C43.4166 49.9885 44.6509 50.0287 45.8987 50.0287C47.16 50.0287 48.4078 50.002 49.6289 49.9348C48.4771 51.4315 47.2454 52.8648 45.9389 54.2284ZM35.9566 46.3256C34.0515 46.0439 32.2133 45.6949 30.4558 45.2656C30.952 43.5348 31.5694 41.7503 32.267 39.9658C32.8172 41.0392 33.3942 42.1127 34.0245 43.1859C34.6552 44.2593 35.2993 45.3058 35.9566 46.3256ZM45.872 18.4046C47.1198 19.6926 48.3676 21.1282 49.6019 22.698C48.3943 22.6444 47.16 22.6041 45.9122 22.6041C44.6509 22.6041 43.4031 22.631 42.1824 22.698C43.334 21.2014 44.5656 19.7682 45.872 18.4046ZM35.9431 26.3073C35.2858 27.3404 34.6284 28.4003 34.0113 29.487C33.3942 30.5604 32.8172 31.6339 32.267 32.7071C31.5626 30.9586 30.9447 29.1765 30.4156 27.3672C32.1731 26.9513 34.0245 26.589 35.9431 26.3073ZM23.8007 43.1055C19.0511 41.0794 15.9786 38.4231 15.9786 36.3163C15.9786 34.2099 19.0511 31.54 23.8007 29.5275C24.9546 29.0309 26.2159 28.5882 27.5174 28.1722C28.2821 30.8019 29.2884 33.539 30.5362 36.3433C29.3019 39.1341 28.3088 41.8577 27.5576 44.4742C26.2294 44.058 24.9681 43.602 23.8007 43.1055ZM31.0192 62.2786C29.1945 61.2321 28.4027 57.2472 29.0202 52.1217C29.1678 50.8607 29.409 49.5322 29.7042 48.177C32.3342 48.8212 35.2054 49.3177 38.2242 49.6396C40.0354 52.1217 41.9138 54.3757 43.8058 56.3481C39.4318 60.4136 35.326 62.6407 32.5352 62.6407C31.9316 62.6275 31.4218 62.5066 31.0192 62.2786ZM62.8447 52.0548C63.4751 57.18 62.6971 61.1649 60.8856 62.2249C60.4833 62.4664 59.96 62.5738 59.3426 62.5738C56.5653 62.5738 52.4463 60.3599 48.0724 56.3214C49.9508 54.349 51.8292 52.1085 53.6137 49.6261C56.646 49.3042 59.5172 48.8077 62.1469 48.1503C62.4556 49.5055 62.6971 50.807 62.8447 52.0548ZM68.0102 43.1055C66.8563 43.602 65.595 44.0448 64.2935 44.4607C63.5288 41.831 62.5225 39.0939 61.2747 36.2896C62.5093 33.4988 63.5021 30.7752 64.2533 28.1588C65.5818 28.5747 66.8428 29.0309 68.0237 29.5275C72.7733 31.5532 75.8458 34.2099 75.8458 36.3163C75.8323 38.4231 72.7598 41.0929 68.0102 43.1055Z" fill="white"/>
<path d="M44.1315 42.2633C47.5181 42.2633 50.2633 39.5181 50.2633 36.1315C50.2633 32.7452 47.5181 30 44.1315 30C40.7452 30 38 32.7452 38 36.1315C38 39.5181 40.7452 42.2633 44.1315 42.2633Z" fill="white"/>
<path d="M88.1663 37.2495H86.1422V40.7354H85V32.1182H87.8527C88.8232 32.1182 89.569 32.3393 90.0898 32.7812C90.6145 33.2229 90.8769 33.8661 90.8769 34.7104C90.8769 35.2471 90.731 35.7145 90.439 36.1133C90.151 36.5117 89.7485 36.8096 89.2316 37.0067L91.2557 40.6643V40.7354H90.0365L88.1663 37.2495ZM86.1422 36.3203H87.8882C88.4524 36.3203 88.9002 36.1742 89.2316 35.8823C89.567 35.5903 89.7347 35.1997 89.7347 34.7104C89.7347 34.1778 89.5749 33.7695 89.2553 33.4854C88.9397 33.2013 88.482 33.0573 87.8822 33.0534H86.1422V36.3203ZM94.9607 40.8539C94.0926 40.8539 93.3863 40.5698 92.8418 40.0015C92.2973 39.4294 92.0251 38.6658 92.0251 37.7112V37.5099C92.0251 36.8747 92.1454 36.3086 92.3861 35.8114C92.6307 35.3101 92.9701 34.9195 93.4041 34.6396C93.842 34.3555 94.3155 34.2132 94.8245 34.2132C95.6571 34.2132 96.3042 34.4875 96.7656 35.0359C97.2274 35.5843 97.4581 36.3695 97.4581 37.3914V37.8471H93.12C93.1358 38.4786 93.3193 38.9896 93.6704 39.3802C94.0255 39.7666 94.4753 39.9601 95.0198 39.9601C95.4066 39.9601 95.7339 39.8812 96.0021 39.7234C96.2706 39.5656 96.5052 39.3565 96.7065 39.0961L97.3753 39.6169C96.8386 40.4414 96.0339 40.8539 94.9607 40.8539ZM94.8245 35.113C94.3826 35.113 94.0117 35.2747 93.7118 35.5981C93.412 35.918 93.2265 36.3677 93.1555 36.9476H96.3633V36.8648C96.3318 36.3086 96.1818 35.8784 95.9136 35.5744C95.6451 35.2669 95.2821 35.113 94.8245 35.113ZM102.684 40.7354C102.621 40.6091 102.57 40.3844 102.53 40.0606C102.021 40.5893 101.414 40.8539 100.707 40.8539C100.076 40.8539 99.5573 40.6763 99.1508 40.3211C98.7485 39.9619 98.5472 39.5083 98.5472 38.9599C98.5472 38.2932 98.7998 37.7763 99.3047 37.4094C99.8136 37.0382 100.528 36.8528 101.447 36.8528H102.513V36.35C102.513 35.9672 102.398 35.6632 102.169 35.4385C101.94 35.2096 101.603 35.0953 101.157 35.0953C100.766 35.0953 100.439 35.1937 100.175 35.3911C99.9105 35.5882 99.7782 35.8271 99.7782 36.1073H98.6774C98.6774 35.7877 98.7899 35.4799 99.0146 35.1838C99.2435 34.8841 99.5513 34.6474 99.9381 34.4737C100.329 34.3003 100.757 34.2132 101.222 34.2132C101.96 34.2132 102.538 34.3987 102.956 34.7698C103.374 35.1367 103.591 35.6437 103.607 36.2906V39.238C103.607 39.826 103.682 40.2935 103.832 40.6406V40.7354H102.684ZM100.867 39.901C101.21 39.901 101.536 39.8122 101.844 39.6346C102.151 39.457 102.374 39.2263 102.513 38.9422V37.6284H101.654C100.313 37.6284 99.6419 38.0208 99.6419 38.806C99.6419 39.1492 99.7566 39.4177 99.9852 39.6109C100.214 39.8041 100.508 39.901 100.867 39.901ZM107.892 39.9601C108.283 39.9601 108.624 39.8416 108.916 39.6049C109.208 39.3682 109.37 39.0724 109.401 38.7171H110.437C110.417 39.0841 110.291 39.4333 110.058 39.7648C109.826 40.0963 109.514 40.3607 109.123 40.5578C108.736 40.7552 108.326 40.8539 107.892 40.8539C107.02 40.8539 106.326 40.5638 105.809 39.9838C105.296 39.3997 105.04 38.6028 105.04 37.5927V37.4094C105.04 36.7859 105.154 36.2315 105.383 35.7463C105.612 35.2609 105.939 34.8841 106.365 34.6159C106.795 34.3474 107.302 34.2132 107.886 34.2132C108.604 34.2132 109.2 34.4284 109.674 34.8586C110.151 35.2885 110.405 35.8469 110.437 36.5333H109.401C109.37 36.119 109.212 35.7796 108.928 35.5153C108.648 35.2471 108.301 35.113 107.886 35.113C107.33 35.113 106.898 35.314 106.59 35.7166C106.286 36.1151 106.134 36.6932 106.134 37.4508V37.6578C106.134 38.3955 106.286 38.9638 106.59 39.3622C106.894 39.7609 107.328 39.9601 107.892 39.9601ZM113.154 32.7812V34.3318H114.349V35.1781H113.154V39.1492C113.154 39.4057 113.207 39.5989 113.314 39.7291C113.42 39.8554 113.602 39.9187 113.858 39.9187C113.984 39.9187 114.158 39.895 114.379 39.8476V40.7354C114.091 40.8143 113.811 40.8539 113.538 40.8539C113.049 40.8539 112.68 40.7057 112.432 40.4099C112.183 40.114 112.059 39.6937 112.059 39.1492V35.1781H110.893V34.3318H112.059V32.7812H113.154ZM125.434 40.7354H124.292L119.954 34.095V40.7354H118.812V32.1182H119.954L124.304 38.7883V32.1182H125.434V40.7354ZM131.234 40.7354C131.171 40.6091 131.12 40.3844 131.08 40.0606C130.571 40.5893 129.964 40.8539 129.258 40.8539C128.626 40.8539 128.107 40.6763 127.701 40.3211C127.299 39.9619 127.097 39.5083 127.097 38.9599C127.097 38.2932 127.35 37.7763 127.855 37.4094C128.364 37.0382 129.078 36.8528 129.997 36.8528H131.063V36.35C131.063 35.9672 130.948 35.6632 130.719 35.4385C130.491 35.2096 130.153 35.0953 129.707 35.0953C129.317 35.0953 128.989 35.1937 128.725 35.3911C128.461 35.5882 128.328 35.8271 128.328 36.1073H127.228C127.228 35.7877 127.34 35.4799 127.565 35.1838C127.794 34.8841 128.102 34.6474 128.488 34.4737C128.879 34.3003 129.307 34.2132 129.772 34.2132C130.51 34.2132 131.088 34.3987 131.506 34.7698C131.925 35.1367 132.142 35.6437 132.158 36.2906V39.238C132.158 39.826 132.233 40.2935 132.383 40.6406V40.7354H131.234ZM129.417 39.901C129.761 39.901 130.086 39.8122 130.394 39.6346C130.702 39.457 130.924 39.2263 131.063 38.9422V37.6284H130.204C128.863 37.6284 128.192 38.0208 128.192 38.806C128.192 39.1492 128.307 39.4177 128.535 39.6109C128.764 39.8041 129.058 39.901 129.417 39.901ZM135.359 32.7812V34.3318H136.555V35.1781H135.359V39.1492C135.359 39.4057 135.413 39.5989 135.519 39.7291C135.626 39.8554 135.807 39.9187 136.064 39.9187C136.19 39.9187 136.364 39.895 136.585 39.8476V40.7354C136.296 40.8143 136.016 40.8539 135.744 40.8539C135.255 40.8539 134.886 40.7057 134.637 40.4099C134.389 40.114 134.265 39.6937 134.265 39.1492V35.1781H133.099V34.3318H134.265V32.7812H135.359ZM139.029 40.7354H137.934V34.3318H139.029V40.7354ZM137.845 32.633C137.845 32.4557 137.898 32.3057 138.005 32.1833C138.115 32.0609 138.277 32 138.49 32C138.703 32 138.865 32.0609 138.975 32.1833C139.086 32.3057 139.141 32.4557 139.141 32.633C139.141 32.8106 139.086 32.9586 138.975 33.0771C138.865 33.1953 138.703 33.2547 138.49 33.2547C138.277 33.2547 138.115 33.1953 138.005 33.0771C137.898 32.9586 137.845 32.8106 137.845 32.633ZM142.899 39.25L144.485 34.3318H145.604L143.308 40.7354H142.473L140.153 34.3318H141.272L142.899 39.25ZM149.232 40.8539C148.364 40.8539 147.658 40.5698 147.113 40.0015C146.569 39.4294 146.297 38.6658 146.297 37.7112V37.5099C146.297 36.8747 146.417 36.3086 146.657 35.8114C146.902 35.3101 147.241 34.9195 147.675 34.6396C148.113 34.3555 148.587 34.2132 149.096 34.2132C149.928 34.2132 150.575 34.4875 151.037 35.0359C151.499 35.5843 151.73 36.3695 151.73 37.3914V37.8471H147.391C147.407 38.4786 147.591 38.9896 147.942 39.3802C148.297 39.7666 148.747 39.9601 149.291 39.9601C149.678 39.9601 150.005 39.8812 150.274 39.7234C150.542 39.5656 150.777 39.3565 150.978 39.0961L151.647 39.6169C151.11 40.4414 150.305 40.8539 149.232 40.8539ZM149.096 35.113C148.654 35.113 148.283 35.2747 147.983 35.5981C147.683 35.918 147.498 36.3677 147.427 36.9476H150.635V36.8648C150.603 36.3086 150.453 35.8784 150.185 35.5744C149.917 35.2669 149.554 35.113 149.096 35.113Z" fill="white"/>
</svg>
