<svg width="575" height="93" viewBox="0 0 575 93" fill="none" xmlns="http://www.w3.org/2000/svg">
<g clip-path="url(#clip0_101_2678)">
<path fill-rule="evenodd" clip-rule="evenodd" d="M77.4346 0C56.8079 0 43.9585 10.2652 38.7737 30.7957C46.5509 20.5305 55.5681 16.6951 65.9378 19.1768C71.7989 20.6433 76.0821 24.9299 80.7033 29.5549C88.2552 37.3384 97.0469 46.25 116.208 46.25C136.835 46.25 149.797 35.9848 154.982 15.4543C147.205 25.7195 138.188 29.5549 127.931 26.9604C122.069 25.4939 117.786 21.2073 113.165 16.5823C105.5 8.91158 96.7087 0 77.4346 0ZM38.7737 46.25C18.0343 46.25 5.18485 56.5152 0 77.0457C7.77728 66.7805 16.7944 62.9451 27.1641 65.4268C33.0252 66.8933 37.3084 71.1799 41.9297 75.8049C49.4815 83.5884 58.2732 92.5 77.4346 92.5C98.0613 92.5 111.023 82.2348 116.208 61.7043C108.431 71.9695 99.4139 75.8049 89.0442 73.2104C83.183 71.7439 78.8999 67.4573 74.2786 62.8323C66.7268 55.1616 57.9351 46.25 38.7737 46.25Z" fill="white"/>
<path fill-rule="evenodd" clip-rule="evenodd" d="M213.392 38.9177H199.867V64.9756C199.867 71.9695 204.488 71.8567 213.392 71.4055V81.8964C195.245 84.0396 188.032 79.0762 188.032 64.9756V38.9177H178V27.6372H188.032V13.0854L199.867 9.58843V27.6372H213.392V38.9177ZM265.015 27.75H276.738V82.0092H265.015V74.2256C260.845 79.9787 254.42 83.4756 245.967 83.4756C231.088 83.4756 218.803 70.9543 218.803 54.936C218.803 38.8049 231.088 26.3964 245.967 26.3964C254.42 26.3964 260.958 29.8933 265.015 35.5336V27.75ZM247.77 72.1951C257.576 72.1951 265.015 64.8628 265.015 54.8232C265.015 44.6707 257.576 37.4512 247.77 37.4512C237.964 37.4512 230.525 44.7836 230.525 54.8232C230.525 64.8628 237.964 72.1951 247.77 72.1951ZM296.35 19.5153C292.179 19.5153 288.798 16.0183 288.798 12.0701C288.798 7.89636 292.179 4.62502 296.35 4.62502C300.52 4.62502 303.902 8.00916 303.902 12.0701C303.902 16.1311 300.52 19.5153 296.35 19.5153ZM290.489 81.8964V27.75H302.211V82.0092H290.489V81.8964ZM315.849 81.8964V2.70734H327.572V81.8964H315.849ZM404.105 27.75H416.503L399.371 82.0092H387.874L376.49 45.4604L364.993 82.0092H353.383L336.251 27.75H348.649L359.244 65.2012L370.741 27.75H382.013L393.397 65.2012L404.105 27.75ZM431.156 19.5153C426.986 19.5153 423.604 16.0183 423.604 12.0701C423.604 7.89636 426.986 4.62502 431.156 4.62502C435.326 4.62502 438.708 8.00916 438.708 12.0701C438.708 16.1311 435.326 19.5153 431.156 19.5153ZM425.295 81.8964V27.75H437.017V82.0092H425.295V81.8964ZM479.398 26.2836C491.571 26.2836 500.362 34.5183 500.362 48.6189V81.8964H488.64V49.8598C488.64 41.625 483.906 37.2256 476.467 37.2256C468.69 37.2256 462.603 41.7378 462.603 52.9055V82.0092H450.768V27.75H462.603V34.6311C465.985 28.9909 471.959 26.2836 479.398 26.2836ZM556.156 5.97868H567.991V81.8964H556.156V74.1128C551.986 79.8659 545.561 83.3628 537.107 83.3628C522.342 83.3628 509.943 70.8415 509.943 54.8232C509.943 38.6921 522.229 26.2836 537.107 26.2836C545.561 26.2836 552.098 29.7805 556.156 35.4208V5.97868ZM538.911 72.1951C548.717 72.1951 556.156 64.8628 556.156 54.8232C556.156 44.6707 548.717 37.4512 538.911 37.4512C529.105 37.4512 521.665 44.7836 521.665 54.8232C521.665 64.8628 529.105 72.1951 538.911 72.1951ZM607.328 83.3628C590.872 83.3628 578.473 70.8415 578.473 54.8232C578.473 38.6921 590.759 26.2836 607.328 26.2836C618.036 26.2836 627.279 31.811 631.674 40.2714L621.53 46.1372C619.163 41.061 613.753 37.7897 607.215 37.7897C597.635 37.7897 590.308 45.0092 590.308 54.8232C590.308 64.6372 597.635 71.8567 607.215 71.8567C613.753 71.8567 619.05 68.4726 621.756 63.5092L631.9 69.2622C627.279 77.8354 618.036 83.3628 607.328 83.3628ZM651.287 42.6403C651.287 52.5671 680.592 46.5884 680.592 66.6677C680.592 77.497 671.124 83.3628 659.289 83.3628C648.356 83.3628 640.579 78.5122 637.085 70.6159L647.229 64.75C648.92 69.6006 653.316 72.5336 659.289 72.5336C664.474 72.5336 668.532 70.8415 668.532 66.4421C668.532 56.7409 639.226 62.2683 639.226 42.7531C639.226 32.6006 648.018 26.1708 659.177 26.1708C668.081 26.1708 675.52 30.3445 679.353 37.4512L669.434 42.9787C667.518 38.6921 663.685 36.7744 659.177 36.7744C655.006 36.8872 651.287 38.8049 651.287 42.6403ZM701.557 42.6403C701.557 52.5671 730.863 46.5884 730.863 66.6677C730.863 77.497 721.395 83.3628 709.56 83.3628C698.627 83.3628 690.849 78.5122 687.355 70.6159L697.5 64.75C699.19 69.6006 703.586 72.5336 709.56 72.5336C714.745 72.5336 718.802 70.8415 718.802 66.4421C718.802 56.7409 689.497 62.2683 689.497 42.7531C689.497 32.6006 698.289 26.1708 709.447 26.1708C718.352 26.1708 725.791 30.3445 729.623 37.4512L719.704 42.9787C717.788 38.6921 713.956 36.7744 709.447 36.7744C705.277 36.8872 701.557 38.8049 701.557 42.6403Z" fill="white"/>
</g>
<defs>
<clipPath id="clip0_101_2678">
<rect width="575" height="93" fill="white"/>
</clipPath>
</defs>
</svg>
