<svg width="243" height="80" viewBox="0 0 243 80" fill="none" xmlns="http://www.w3.org/2000/svg">
<g filter="url(#filter0_d_101_2644)">
<g clip-path="url(#clip0_101_2644)">
<path d="M63.1562 6.66669H9.51042C5.91481 6.66669 3 9.5815 3 13.1771V66.8229C3 70.4185 5.91481 73.3334 9.51042 73.3334H63.1562C66.7519 73.3334 69.6667 70.4185 69.6667 66.8229V13.1771C69.6667 9.5815 66.7519 6.66669 63.1562 6.66669Z" fill="white"/>
<path d="M63.1562 6.66669H9.51042C5.91481 6.66669 3 9.5815 3 13.1771V66.8229C3 70.4185 5.91481 73.3334 9.51042 73.3334H63.1562C66.7519 73.3334 69.6667 70.4185 69.6667 66.8229V13.1771C69.6667 9.5815 66.7519 6.66669 63.1562 6.66669Z" fill="white"/>
<path fill-rule="evenodd" clip-rule="evenodd" d="M44.268 59.7167V66.235C45.3277 66.7783 46.5809 67.1855 48.0278 67.4572C49.4747 67.7288 50.9995 67.8646 52.6027 67.8646C54.165 67.8646 55.6491 67.7152 57.0553 67.4164C58.4614 67.1177 59.6943 66.6254 60.754 65.9396C61.8136 65.2539 62.6525 64.3576 63.2706 63.2508C63.8887 62.144 64.1978 60.7759 64.1978 59.1464C64.1978 57.9648 64.0213 56.9294 63.668 56.04C63.3148 55.1505 62.8054 54.3595 62.1396 53.6669C61.474 52.9744 60.6758 52.353 59.7452 51.803C58.8146 51.253 57.7652 50.7336 56.5968 50.2448C55.7409 49.8917 54.9734 49.5488 54.2941 49.2161C53.6148 48.8833 53.0374 48.5439 52.5619 48.1977C52.0864 47.8513 51.7196 47.4846 51.4615 47.0977C51.2034 46.7105 51.0743 46.2727 51.0743 45.7837C51.0743 45.3357 51.1898 44.9316 51.4208 44.5717C51.6517 44.2118 51.9778 43.903 52.3989 43.6449C52.8201 43.387 53.3362 43.1866 53.9476 43.044C54.559 42.9014 55.2382 42.8302 55.9855 42.8302C56.5288 42.8302 57.1028 42.871 57.7073 42.9523C58.3119 43.0339 58.9198 43.1595 59.5313 43.3292C60.1426 43.499 60.7369 43.7129 61.3144 43.9708C61.8917 44.2289 62.4249 44.5276 62.914 44.8672V38.7766C61.9223 38.3964 60.8389 38.1146 59.6637 37.9312C58.4886 37.7479 57.1402 37.6562 55.6187 37.6562C54.0698 37.6562 52.6027 37.8227 51.217 38.1553C49.8313 38.488 48.612 39.0074 47.559 39.7135C46.5062 40.4198 45.6741 41.3194 45.0628 42.4126C44.4515 43.5057 44.1458 44.8128 44.1458 46.3337C44.1458 48.2757 44.7062 49.9324 45.827 51.304C46.9477 52.6755 48.6493 53.8366 50.9317 54.7872C51.8283 55.1539 52.6638 55.5137 53.4382 55.8668C54.2125 56.2199 54.8817 56.5866 55.4454 56.9668C56.0092 57.347 56.4541 57.7612 56.7803 58.2094C57.1063 58.6574 57.2693 59.1667 57.2693 59.7371C57.2693 60.1581 57.1674 60.5484 56.9636 60.9083C56.7598 61.2682 56.4507 61.5805 56.0364 61.8453C55.6221 62.1102 55.1058 62.3172 54.4877 62.4665C53.8694 62.616 53.1461 62.6906 52.3174 62.6906C50.9045 62.6906 49.5053 62.4428 48.1194 61.9471C46.7338 61.4516 45.4499 60.7081 44.268 59.7167ZM33.3098 43.6565H41.6718V38.3073H18.3645V43.6565H26.6856V67.474H33.3098V43.6565Z" fill="black"/>
</g>
<g clip-path="url(#clip1_101_2644)">
<path d="M88.6281 27.7541H80.3018V53.5457H76.9198V27.7541H68.6106V24.6925H88.6281V27.7541Z" fill="white"/>
<path d="M101.767 32.9446L92.2905 56.842C90.6023 61.1053 88.2274 63.2398 85.1659 63.2398C84.3075 63.2398 83.5922 63.154 83.0142 62.9766V60.018C83.7238 60.2584 84.3761 60.3785 84.9656 60.3785C86.6308 60.3785 87.8784 59.3885 88.7081 57.4028L90.3562 53.5L82.3103 32.9446H85.9727L91.5465 48.7961C91.6152 48.9964 91.7525 49.5228 91.97 50.3641H92.0902C92.1588 50.0436 92.2904 49.5343 92.4907 48.8361L98.3449 32.9446H101.767Z" fill="white"/>
<path d="M107.164 50.57H107.083V63.0223H103.781V32.9445H107.083V36.5669H107.164C108.789 33.8315 111.158 32.4638 114.288 32.4638C116.943 32.4638 119.015 33.3851 120.503 35.2278C121.991 37.0705 122.735 39.5426 122.735 42.6442C122.735 46.0892 121.899 48.8532 120.222 50.9248C118.546 52.9964 116.251 54.0321 113.344 54.0321C110.671 54.0264 108.611 52.8762 107.164 50.57ZM107.083 42.2608V45.1393C107.083 46.8446 107.638 48.2867 108.743 49.477C109.847 50.6673 111.255 51.2567 112.96 51.2567C114.958 51.2567 116.526 50.4899 117.659 48.962C118.792 47.434 119.358 45.3052 119.358 42.587C119.358 40.2923 118.826 38.4954 117.767 37.1964C116.709 35.8973 115.272 35.245 113.464 35.245C111.547 35.245 110.002 35.9145 108.835 37.2479C107.667 38.5755 107.083 40.2465 107.083 42.2608Z" fill="white"/>
<path d="M142.752 44.0692H128.205C128.257 46.3639 128.875 48.1322 130.054 49.3797C131.233 50.6272 132.858 51.251 134.924 51.251C137.241 51.251 139.376 50.4842 141.321 48.9562V52.0521C139.513 53.3683 137.115 54.0264 134.14 54.0264C131.227 54.0264 128.944 53.0936 127.278 51.2224C125.613 49.3511 124.783 46.7187 124.783 43.3252C124.783 40.1206 125.693 37.5054 127.507 35.491C129.327 33.471 131.582 32.4638 134.277 32.4638C136.972 32.4638 139.055 33.3336 140.532 35.079C142.008 36.8244 142.746 39.245 142.746 42.3409V44.0692H142.752ZM139.37 41.2708C139.359 39.3652 138.895 37.8831 137.991 36.8244C137.087 35.7657 135.828 35.2335 134.22 35.2335C132.663 35.2335 131.341 35.7886 130.254 36.9045C129.167 38.0204 128.497 39.4739 128.24 41.2708H139.37Z" fill="white"/>
<path d="M145.636 52.3782V48.3953C146.054 48.7959 146.552 49.1621 147.136 49.4826C147.719 49.8031 148.332 50.0777 148.978 50.2952C149.625 50.5127 150.272 50.6901 150.918 50.8102C151.571 50.9304 152.171 50.9933 152.721 50.9933C154.621 50.9933 156.046 50.6099 156.984 49.8374C157.923 49.0648 158.392 47.9547 158.392 46.5069C158.392 45.7286 158.237 45.0533 157.923 44.4754C157.608 43.8974 157.179 43.3709 156.624 42.8959C156.068 42.421 155.416 41.9631 154.661 41.5282C153.905 41.0933 153.093 40.6355 152.223 40.1491C151.302 39.6398 150.443 39.1248 149.648 38.5983C148.852 38.0775 148.154 37.4995 147.57 36.8701C146.981 36.2406 146.518 35.5253 146.18 34.7298C145.842 33.9344 145.676 32.9959 145.676 31.9258C145.676 30.6096 145.94 29.4708 146.466 28.498C146.992 27.5251 147.685 26.724 148.549 26.0945C149.407 25.465 150.386 24.9958 151.485 24.6867C152.583 24.3777 153.705 24.2232 154.844 24.2232C157.448 24.2232 159.342 24.5666 160.532 25.2475V29.0473C158.976 27.8685 156.973 27.2791 154.529 27.2791C153.854 27.2791 153.179 27.3592 152.503 27.508C151.828 27.6625 151.227 27.9143 150.701 28.2633C150.174 28.6124 149.745 29.0588 149.413 29.6139C149.081 30.1632 148.915 30.8328 148.915 31.6282C148.915 32.3664 149.041 33.0016 149.293 33.5395C149.545 34.0775 149.917 34.5639 150.409 35.0102C150.901 35.4509 151.496 35.8801 152.206 36.2978C152.91 36.7156 153.722 37.1676 154.644 37.6655C155.588 38.1748 156.486 38.7127 157.333 39.2735C158.18 39.8344 158.924 40.4581 159.559 41.1448C160.194 41.8315 160.704 42.5869 161.076 43.4167C161.448 44.2464 161.637 45.2021 161.637 46.2722C161.637 47.6914 161.379 48.8989 160.875 49.8832C160.366 50.8675 159.679 51.6686 158.815 52.2866C157.951 52.9047 156.955 53.351 155.822 53.6257C154.695 53.9004 153.505 54.0378 152.252 54.0378C151.834 54.0378 151.319 54.0034 150.706 53.929C150.094 53.8546 149.465 53.7459 148.829 53.6086C148.188 53.4655 147.588 53.2938 147.015 53.0878C146.437 52.8646 145.985 52.63 145.636 52.3782Z" fill="white"/>
<path d="M179.199 52.6015C177.614 53.5514 175.737 54.0321 173.568 54.0321C170.633 54.0321 168.258 53.0765 166.455 51.1651C164.652 49.2538 163.748 46.7759 163.748 43.7315C163.748 40.3381 164.721 37.6141 166.667 35.554C168.612 33.4939 171.205 32.4638 174.455 32.4638C176.264 32.4638 177.86 32.8014 179.245 33.471V36.853C177.717 35.7772 176.08 35.245 174.335 35.245C172.229 35.245 170.501 36.0003 169.156 37.5111C167.811 39.0219 167.136 41.0019 167.136 43.4568C167.136 45.8718 167.771 47.7774 169.036 49.168C170.301 50.5585 172.006 51.2624 174.135 51.2624C175.932 51.2624 177.62 50.6673 179.205 49.4713V52.6015H179.199Z" fill="white"/>
<path d="M191.966 36.2807C191.388 35.8401 190.558 35.6169 189.471 35.6169C188.063 35.6169 186.885 36.2807 185.94 37.6084C184.996 38.936 184.521 40.7443 184.521 43.0391V53.54H181.219V32.9388H184.521V37.1849H184.601C185.071 35.7371 185.786 34.604 186.753 33.7972C187.72 32.9845 188.796 32.5782 189.992 32.5782C190.85 32.5782 191.508 32.6698 191.966 32.8587V36.2807Z" fill="white"/>
<path d="M195.754 27.7141C195.165 27.7141 194.661 27.5138 194.244 27.1132C193.826 26.7126 193.62 26.2033 193.62 25.5853C193.62 24.9672 193.826 24.4579 194.244 24.0459C194.661 23.6396 195.165 23.4336 195.754 23.4336C196.355 23.4336 196.87 23.6396 197.294 24.0459C197.717 24.4579 197.929 24.9672 197.929 25.5853C197.929 26.1747 197.717 26.6783 197.294 27.096C196.87 27.5023 196.355 27.7141 195.754 27.7141ZM197.362 53.5457H194.061V32.9445H197.362V53.5457Z" fill="white"/>
<path d="M202.685 50.57H202.604V63.0223H199.302V32.9445H202.604V36.5669H202.685C204.31 33.8315 206.679 32.4638 209.809 32.4638C212.464 32.4638 214.536 33.3851 216.024 35.2278C217.512 37.0705 218.256 39.5426 218.256 42.6442C218.256 46.0892 217.42 48.8532 215.743 50.9248C214.067 52.9964 211.772 54.0321 208.865 54.0321C206.192 54.0264 204.132 52.8762 202.685 50.57ZM202.604 42.2608V45.1393C202.604 46.8446 203.159 48.2867 204.264 49.477C205.368 50.6673 206.776 51.2567 208.481 51.2567C210.479 51.2567 212.047 50.4899 213.18 48.962C214.313 47.434 214.879 45.3052 214.879 42.587C214.879 40.2923 214.347 38.4954 213.288 37.1964C212.23 35.8973 210.793 35.245 208.985 35.245C207.068 35.245 205.523 35.9145 204.356 37.2479C203.188 38.5755 202.604 40.2465 202.604 42.2608Z" fill="white"/>
<path d="M230.611 53.3454C229.832 53.7746 228.808 53.9863 227.532 53.9863C223.927 53.9863 222.118 51.972 222.118 47.949V35.7599H218.576V32.9444H222.118V27.9143L225.42 26.8499V32.9444H230.611V35.7599H225.42V47.3653C225.42 48.7444 225.655 49.7344 226.124 50.3239C226.593 50.9133 227.372 51.2109 228.459 51.2109C229.289 51.2109 230.01 50.982 230.611 50.5242V53.3454Z" fill="white"/>
</g>
</g>
<defs>
<filter id="filter0_d_101_2644" x="0.333333" y="0" width="245.333" height="85.3333" filterUnits="userSpaceOnUse" color-interpolation-filters="sRGB">
<feFlood flood-opacity="0" result="BackgroundImageFix"/>
<feColorMatrix in="SourceAlpha" type="matrix" values="0 0 0 0 0 0 0 0 0 0 0 0 0 0 0 0 0 0 127 0" result="hardAlpha"/>
<feOffset dy="2.66667"/>
<feGaussianBlur stdDeviation="1.33333"/>
<feComposite in2="hardAlpha" operator="out"/>
<feColorMatrix type="matrix" values="0 0 0 0 0 0 0 0 0 0 0 0 0 0 0 0 0 0 0.25 0"/>
<feBlend mode="normal" in2="BackgroundImageFix" result="effect1_dropShadow_101_2644"/>
<feBlend mode="normal" in="SourceGraphic" in2="effect1_dropShadow_101_2644" result="shape"/>
</filter>
<clipPath id="clip0_101_2644">
<rect width="66.6667" height="66.6667" fill="white" transform="translate(3 6.66669)"/>
</clipPath>
<clipPath id="clip1_101_2644">
<rect width="162" height="39.8119" fill="white" transform="translate(74.3333 20)"/>
</clipPath>
</defs>
</svg>
