<svg width="700" height="700" viewBox="0 0 700 700" fill="none" xmlns="http://www.w3.org/2000/svg">
<mask id="mask0_97_1983" style="mask-type:alpha" maskUnits="userSpaceOnUse" x="0" y="0" width="700" height="700">
<circle cx="350" cy="350" r="350" fill="#D9D9D9"/>
</mask>
<g mask="url(#mask0_97_1983)">
<g clip-path="url(#clip0_97_1983)">
<path d="M-150 0H850V700H-150V0Z" fill="#009440"/>
<path d="M-65 350L350 615L765 350L350 85L-65 350Z" fill="#FFCB00"/>
<path d="M350 525C446.65 525 525 446.65 525 350C525 253.35 446.65 175 350 175C253.35 175 175 253.35 175 350C175 446.65 253.35 525 350 525Z" fill="#302681"/>
<mask id="mask1_97_1983" style="mask-type:luminance" maskUnits="userSpaceOnUse" x="175" y="175" width="350" height="350">
<path d="M350 525C446.65 525 525 446.65 525 350C525 253.35 446.65 175 350 175C253.35 175 175 253.35 175 350C175 446.65 253.35 525 350 525Z" fill="white"/>
</mask>
<g mask="url(#mask1_97_1983)">
<path d="M-175 700C-175 587.283 -130.223 479.183 -50.5204 399.48C29.1826 319.777 137.283 275 250 275C362.717 275 470.817 319.777 550.52 399.48C630.223 479.183 675 587.283 675 700H650C650 593.913 607.857 492.172 532.843 417.157C457.828 342.143 356.087 300 250 300C143.913 300 42.1718 342.143 -32.8427 417.157C-107.857 492.172 -150 593.913 -150 700H-175Z" fill="white"/>
</g>
<path fill-rule="evenodd" clip-rule="evenodd" d="M200.744 298.846C202.719 298.604 204.505 297.5 205.711 295.777C206.916 294.054 207.442 291.854 207.173 289.661C206.904 287.467 205.861 285.46 204.275 284.08C202.688 282.7 200.688 282.061 198.713 282.304C196.739 282.546 194.953 283.65 193.747 285.372C192.541 287.095 192.015 289.295 192.285 291.489C192.554 293.682 193.597 295.69 195.183 297.07C196.77 298.449 198.77 299.088 200.744 298.846M200.367 295.774C201.527 295.631 202.572 294.947 203.272 293.871C203.972 292.796 204.27 291.417 204.101 290.038C203.932 288.659 203.309 287.393 202.369 286.519C201.429 285.645 200.25 285.233 199.091 285.376C197.931 285.518 196.886 286.202 196.186 287.278C195.486 288.354 195.188 289.733 195.357 291.112C195.526 292.49 196.149 293.756 197.089 294.631C198.028 295.505 199.208 295.916 200.367 295.774" fill="#009440"/>
<path fill-rule="evenodd" clip-rule="evenodd" d="M214.325 297.341L217.413 297.125L216.981 290.95L223.631 290.485C225.017 290.388 226.308 289.744 227.219 288.696C228.131 287.647 228.588 286.28 228.491 284.894C228.394 283.508 227.751 282.217 226.702 281.306C225.654 280.395 224.286 279.937 222.901 280.034L213.4 280.698L214.325 297.341ZM216.765 287.862L223.178 287.413C223.745 287.374 224.273 287.111 224.646 286.682C225.019 286.253 225.206 285.693 225.166 285.126C225.126 284.559 224.863 284.031 224.434 283.659C224.005 283.286 223.446 283.099 222.879 283.138L216.466 283.587L216.765 287.862Z" fill="#009440"/>
<path d="M228.457 296.353C228.291 293.978 227.926 288.752 224.363 289.001L219.85 289.317C225.075 288.952 225.441 294.177 225.607 296.552" fill="#009440"/>
<path fill-rule="evenodd" clip-rule="evenodd" d="M235.447 296.026L243.303 295.889C244.241 295.872 245.167 295.671 246.027 295.297C246.887 294.923 247.665 294.383 248.317 293.709C248.969 293.034 249.481 292.237 249.825 291.365C250.168 290.492 250.337 289.56 250.321 288.622L250.279 286.242C250.263 285.304 250.062 284.378 249.688 283.518C249.314 282.658 248.774 281.88 248.099 281.228C247.424 280.576 246.628 280.064 245.755 279.72C244.882 279.377 243.95 279.208 243.013 279.224L235.157 279.362L235.447 296.026ZM238.488 292.877L243.011 292.798C244.211 292.777 245.353 292.28 246.187 291.417C247.02 290.554 247.476 289.395 247.456 288.196L247.431 286.768C247.41 285.568 246.913 284.426 246.05 283.592C245.187 282.759 244.028 282.302 242.829 282.323L238.305 282.402L238.488 292.877Z" fill="#009440"/>
<path d="M256.61 295.818L271.601 296.341L271.709 293.248L259.573 292.824L259.723 288.541L269.241 288.874L269.34 286.018L259.822 285.686L259.939 282.354L271.36 282.753L271.468 279.66L257.191 279.161L256.61 295.818Z" fill="#009440"/>
<path d="M277.754 296.718L280.6 296.967L281.596 285.582L283.921 297.257L286.53 297.486L290.847 286.391L289.851 297.776L292.697 298.025L294.149 281.422L289.999 281.059L285.682 292.153L283.357 280.478L279.207 280.115L277.754 296.718Z" fill="#009440"/>
<path d="M312.286 300.613L324.605 302.73L325.089 299.914L315.585 298.281L316.231 294.526L323.974 295.857L324.458 293.041L316.714 291.71L317.158 289.129L326.368 290.712L326.852 287.896L314.826 285.829L312.286 300.613Z" fill="#009440"/>
<path fill-rule="evenodd" clip-rule="evenodd" d="M343.934 306.829L346.931 307.604L348.481 301.611L354.935 303.28C356.28 303.628 357.708 303.427 358.905 302.722C360.102 302.017 360.97 300.865 361.318 299.52C361.666 298.175 361.465 296.747 360.76 295.55C360.055 294.353 358.903 293.485 357.558 293.138L348.338 290.753L343.934 306.829ZM349.256 298.614L355.48 300.224C356.03 300.366 356.614 300.284 357.104 299.996C357.593 299.707 357.948 299.236 358.091 298.686C358.233 298.135 358.151 297.551 357.862 297.062C357.574 296.572 357.103 296.217 356.553 296.075L350.329 294.465L349.256 298.614Z" fill="#009440"/>
<path fill-rule="evenodd" clip-rule="evenodd" d="M364.382 312.284L367.334 313.215L369.196 307.311L375.554 309.316C376.879 309.733 378.316 309.608 379.548 308.966C380.78 308.325 381.707 307.22 382.125 305.895C382.543 304.57 382.417 303.134 381.775 301.901C381.134 300.669 380.029 299.742 378.704 299.324L369.621 296.461L364.382 312.284ZM370.127 304.359L376.258 306.292C376.8 306.463 377.387 306.412 377.892 306.149C378.396 305.887 378.775 305.435 378.946 304.893C379.117 304.351 379.065 303.763 378.803 303.259C378.54 302.755 378.088 302.376 377.546 302.205L371.415 300.272L370.127 304.359Z" fill="#009440"/>
<path d="M377.893 316.544C378.609 314.273 380.184 309.278 376.778 308.204L372.464 306.844C377.46 308.419 375.884 313.414 375.168 315.685" fill="#009440"/>
<path fill-rule="evenodd" clip-rule="evenodd" d="M391.542 321.428C393.405 322.125 395.5 321.971 397.364 320.999C399.229 320.028 400.712 318.32 401.486 316.249C402.26 314.179 402.262 311.917 401.492 309.961C400.721 308.004 399.242 306.514 397.379 305.817C395.516 305.121 393.421 305.275 391.557 306.246C389.692 307.217 388.209 308.926 387.435 310.996C386.661 313.066 386.659 315.329 387.429 317.285C388.2 319.241 389.679 320.732 391.542 321.428M392.626 318.529C393.72 318.938 394.963 318.814 396.081 318.183C397.199 317.552 398.1 316.467 398.586 315.165C399.073 313.864 399.105 312.454 398.675 311.244C398.245 310.035 397.389 309.126 396.295 308.716C395.201 308.307 393.958 308.432 392.84 309.063C391.723 309.694 390.821 310.779 390.335 312.08C389.848 313.382 389.816 314.792 390.246 316.001C390.676 317.211 391.532 318.12 392.626 318.529" fill="#009440"/>
<mask id="mask2_97_1983" style="mask-type:luminance" maskUnits="userSpaceOnUse" x="404" y="311" width="21" height="22">
<path d="M404.283 326.364L410.929 311.08L424.685 317.061L418.039 332.345L404.283 326.364ZM415.623 319.092L414.484 321.713L421.362 324.703L422.501 322.083L415.623 319.092Z" fill="white"/>
</mask>
<g mask="url(#mask2_97_1983)">
<path fill-rule="evenodd" clip-rule="evenodd" d="M411.161 329.355C412.985 330.148 415.085 330.103 416.998 329.231C418.911 328.359 420.481 326.73 421.362 324.703C422.243 322.676 422.364 320.418 421.697 318.423C421.03 316.429 419.631 314.864 417.807 314.07C415.983 313.277 413.883 313.322 411.97 314.194C410.057 315.066 408.487 316.695 407.606 318.722C406.725 320.749 406.604 323.008 407.271 325.002C407.938 326.996 409.337 328.562 411.161 329.355M412.395 326.516C413.467 326.982 414.714 326.923 415.863 326.351C417.013 325.78 417.969 324.743 418.523 323.469C419.077 322.195 419.183 320.788 418.817 319.558C418.451 318.328 417.644 317.375 416.573 316.909C415.501 316.443 414.254 316.502 413.105 317.074C411.955 317.645 410.999 318.682 410.445 319.956C409.891 321.23 409.785 322.637 410.151 323.867C410.517 325.098 411.324 326.05 412.395 326.516" fill="#009440"/>
</g>
<path d="M415.576 322.187L421.362 324.703L420.412 326.887L414.626 324.371L415.576 322.187Z" fill="#009440"/>
<path d="M419.178 323.754L421.362 324.703L418.039 332.345L415.856 331.396L419.178 323.754Z" fill="#009440"/>
<path fill-rule="evenodd" clip-rule="evenodd" d="M423.626 334.951L426.396 336.332L429.159 330.792L435.125 333.767C436.368 334.387 437.807 334.487 439.124 334.046C440.442 333.605 441.53 332.659 442.15 331.416C442.77 330.173 442.87 328.734 442.429 327.417C441.989 326.099 441.043 325.011 439.799 324.391L431.276 320.142L423.626 334.951ZM430.54 328.022L436.293 330.89C436.801 331.144 437.39 331.185 437.929 331.005C438.468 330.824 438.913 330.437 439.167 329.929C439.42 329.42 439.461 328.832 439.281 328.293C439.101 327.754 438.714 327.309 438.205 327.055L432.452 324.187L430.54 328.022Z" fill="#009440"/>
<path d="M436.305 341.272C437.367 339.141 439.704 334.454 436.508 332.86L432.459 330.842C437.147 333.179 434.81 337.867 433.748 339.997" fill="#009440"/>
<path d="M442.494 344.538L455.549 351.925L457.073 349.231L446.504 343.251L448.615 339.521L456.904 344.211L458.311 341.724L450.022 337.034L451.663 334.133L461.61 339.761L463.134 337.067L450.701 330.032L442.494 344.538Z" fill="#009440"/>
<path d="M466.81 352.697C465.915 354.102 466.823 355.669 468.831 356.948C470.839 358.227 472.206 358.181 472.784 357.279C474.607 354.417 464.068 350.244 467.316 345.255C470.117 340.97 474.909 344.305 476.716 345.457C478.523 346.608 481.425 349.586 479.168 353.018L476.106 351.067C477.065 349.561 476.012 348.113 474.405 347.09C472.849 346.098 471.585 345.646 470.657 347.102C469.104 349.429 479.433 353.821 476.266 358.791C473.932 362.456 469.869 360.856 467.159 359.129C464.849 357.658 461.399 354.189 463.648 350.682L466.81 352.697Z" fill="#009440"/>
<path d="M484.69 364.52C483.722 365.876 484.546 367.488 486.485 368.871C488.423 370.253 489.791 370.279 490.415 369.408C492.386 366.646 482.079 361.927 485.584 357.115C488.605 352.982 493.216 356.563 494.961 357.808C496.705 359.052 499.447 362.178 497.014 365.487L494.058 363.379C495.095 361.925 494.118 360.424 492.568 359.318C491.065 358.246 489.826 357.728 488.824 359.134C487.151 361.377 497.236 366.304 493.814 371.101C491.291 374.639 487.318 372.828 484.701 370.962C482.472 369.372 479.207 365.727 481.637 362.342L484.69 364.52Z" fill="#009440"/>
<path fill-rule="evenodd" clip-rule="evenodd" d="M501.6 383.696C503.156 384.934 505.196 385.435 507.269 385.087C509.343 384.74 511.281 383.573 512.657 381.843C514.033 380.113 514.734 377.963 514.606 375.864C514.478 373.765 513.532 371.891 511.975 370.653C510.418 369.414 508.379 368.914 506.305 369.261C504.231 369.609 502.294 370.776 500.918 372.505C499.542 374.235 498.841 376.386 498.969 378.484C499.097 380.583 500.043 382.458 501.6 383.696M503.526 381.274C504.441 382.001 505.661 382.266 506.919 382.012C508.177 381.757 509.37 381.003 510.234 379.916C511.099 378.829 511.566 377.497 511.531 376.214C511.496 374.931 510.962 373.802 510.048 373.075C509.134 372.348 507.913 372.082 506.655 372.337C505.397 372.591 504.205 373.345 503.34 374.432C502.475 375.519 502.009 376.851 502.044 378.134C502.079 379.417 502.612 380.546 503.526 381.274" fill="#009440"/>
<path d="M207.143 311.072L204.825 318.204L208.392 319.363" fill="white"/>
<path d="M207.143 311.072L209.461 318.204L205.894 319.363" fill="white"/>
<path d="M214.276 316.254H206.776V320.004" fill="white"/>
<path d="M214.276 316.254L208.208 320.662L206.004 317.628" fill="white"/>
<path d="M200.01 316.254L206.078 320.662L208.282 317.628" fill="white"/>
<path d="M200.01 316.254H207.51V320.004" fill="white"/>
<path d="M211.551 324.639L209.234 317.506L205.667 318.665" fill="white"/>
<path d="M211.551 324.639L205.484 320.231L207.688 317.197" fill="white"/>
<path d="M202.734 324.639L208.802 320.231L206.598 317.197" fill="white"/>
<path d="M202.734 324.639L205.052 317.506L208.619 318.665" fill="white"/>
<path d="M222.619 384.643L220.301 391.776L223.868 392.935" fill="white"/>
<path d="M222.619 384.643L224.937 391.776L221.37 392.935" fill="white"/>
<path d="M229.752 389.825H222.252V393.575" fill="white"/>
<path d="M229.752 389.825L223.684 394.234L221.48 391.2" fill="white"/>
<path d="M215.486 389.825L221.554 394.234L223.758 391.2" fill="white"/>
<path d="M215.486 389.825H222.986V393.575" fill="white"/>
<path d="M227.027 398.211L224.71 391.078L221.143 392.237" fill="white"/>
<path d="M227.027 398.211L220.96 393.802L223.164 390.768" fill="white"/>
<path d="M218.211 398.21L224.278 393.802L222.074 390.768" fill="white"/>
<path d="M218.211 398.21L220.528 391.078L224.095 392.236" fill="white"/>
<path d="M201.19 401.607L199.259 407.551L202.231 408.517" fill="white"/>
<path d="M201.19 401.607L203.122 407.551L200.15 408.517" fill="white"/>
<path d="M207.135 405.926H200.885V409.051" fill="white"/>
<path d="M207.135 405.926L202.078 409.599L200.241 407.071" fill="white"/>
<path d="M195.246 405.926L200.303 409.599L202.14 407.071" fill="white"/>
<path d="M195.246 405.926H201.496V409.051" fill="white"/>
<path d="M204.864 412.913L202.933 406.969L199.961 407.935" fill="white"/>
<path d="M204.864 412.913L199.808 409.24L201.645 406.711" fill="white"/>
<path d="M197.517 412.914L202.573 409.24L200.736 406.712" fill="white"/>
<path d="M197.517 412.914L199.448 406.969L202.42 407.935" fill="white"/>
<path d="M239.762 377.857L238.658 381.254L240.357 381.806" fill="white"/>
<path d="M239.762 377.857L240.866 381.254L239.167 381.806" fill="white"/>
<path d="M243.158 380.325H239.587V382.111" fill="white"/>
<path d="M243.158 380.325L240.269 382.424L239.219 380.98" fill="white"/>
<path d="M236.365 380.325L239.255 382.424L240.304 380.98" fill="white"/>
<path d="M236.365 380.325H239.937V382.111" fill="white"/>
<path d="M241.861 384.318L240.757 380.921L239.059 381.473" fill="white"/>
<path d="M241.861 384.318L238.972 382.219L240.021 380.774" fill="white"/>
<path d="M237.663 384.318L240.552 382.219L239.502 380.774" fill="white"/>
<path d="M237.663 384.318L238.766 380.921L240.465 381.473" fill="white"/>
<path d="M259.048 403.274L257.116 409.218L260.088 410.184" fill="white"/>
<path d="M259.048 403.274L260.979 409.218L258.007 410.184" fill="white"/>
<path d="M264.992 407.593H258.742V410.718" fill="white"/>
<path d="M264.992 407.593L259.935 411.266L258.099 408.738" fill="white"/>
<path d="M253.104 407.593L258.16 411.266L259.997 408.738" fill="white"/>
<path d="M253.104 407.593H259.354V410.718" fill="white"/>
<path d="M262.721 414.58L260.79 408.636L257.818 409.602" fill="white"/>
<path d="M262.721 414.58L257.665 410.906L259.502 408.378" fill="white"/>
<path d="M255.374 414.58L260.43 410.907L258.593 408.378" fill="white"/>
<path d="M255.374 414.58L257.305 408.636L260.277 409.602" fill="white"/>
<path d="M253.81 421.905L252.265 426.66L254.642 427.433" fill="white"/>
<path d="M253.81 421.905L255.355 426.66L252.977 427.433" fill="white"/>
<path d="M258.565 425.36H253.565V427.86" fill="white"/>
<path d="M258.565 425.36L254.52 428.299L253.05 426.276" fill="white"/>
<path d="M249.054 425.36L253.099 428.299L254.569 426.276" fill="white"/>
<path d="M249.054 425.36H254.054V427.86" fill="white"/>
<path d="M256.749 430.95L255.203 426.194L252.826 426.967" fill="white"/>
<path d="M256.749 430.95L252.703 428.011L254.173 425.988" fill="white"/>
<path d="M250.871 430.95L254.916 428.011L253.446 425.988" fill="white"/>
<path d="M250.871 430.95L252.416 426.195L254.793 426.967" fill="white"/>
<path d="M404.286 288.214L401.968 295.347L405.535 296.506" fill="white"/>
<path d="M404.286 288.214L406.603 295.347L403.037 296.506" fill="white"/>
<path d="M411.419 293.397H403.919V297.147" fill="white"/>
<path d="M411.419 293.397L405.351 297.805L403.147 294.771" fill="white"/>
<path d="M397.153 293.397L403.22 297.805L405.425 294.771" fill="white"/>
<path d="M397.153 293.397H404.653V297.147" fill="white"/>
<path d="M408.694 301.782L406.376 294.649L402.81 295.808" fill="white"/>
<path d="M408.694 301.782L402.626 297.374L404.831 294.34" fill="white"/>
<path d="M399.877 301.782L405.945 297.374L403.741 294.34" fill="white"/>
<path d="M399.877 301.782L402.195 294.649L405.761 295.808" fill="white"/>
<path d="M472.619 403.928L470.301 411.061L473.868 412.22" fill="white"/>
<path d="M472.619 403.928L474.937 411.061L471.37 412.22" fill="white"/>
<path d="M479.752 409.111H472.252V412.861" fill="white"/>
<path d="M479.752 409.111L473.684 413.519L471.48 410.485" fill="white"/>
<path d="M465.486 409.111L471.554 413.519L473.758 410.485" fill="white"/>
<path d="M465.486 409.111H472.986V412.861" fill="white"/>
<path d="M477.027 417.496L474.71 410.363L471.143 411.522" fill="white"/>
<path d="M477.027 417.496L470.96 413.088L473.164 410.054" fill="white"/>
<path d="M468.211 417.496L474.278 413.088L472.074 410.054" fill="white"/>
<path d="M468.211 417.496L470.528 410.363L474.095 411.522" fill="white"/>
<path d="M496.905 408.095L495.36 412.85L497.737 413.623" fill="white"/>
<path d="M496.905 408.095L498.45 412.85L496.072 413.623" fill="white"/>
<path d="M501.66 411.55H496.66V414.05" fill="white"/>
<path d="M501.66 411.55L497.615 414.489L496.145 412.466" fill="white"/>
<path d="M492.15 411.55L496.195 414.489L497.664 412.467" fill="white"/>
<path d="M492.15 411.55H497.15V414.05" fill="white"/>
<path d="M499.844 417.14L498.299 412.385L495.921 413.157" fill="white"/>
<path d="M499.844 417.14L495.799 414.201L497.268 412.179" fill="white"/>
<path d="M493.966 417.14L498.011 414.201L496.541 412.179" fill="white"/>
<path d="M493.966 417.14L495.511 412.385L497.889 413.158" fill="white"/>
<path d="M479.762 420.655L477.831 426.599L480.803 427.565" fill="white"/>
<path d="M479.762 420.655L481.693 426.599L478.721 427.565" fill="white"/>
<path d="M485.706 424.973H479.456V428.098" fill="white"/>
<path d="M485.706 424.973L480.65 428.647L478.813 426.119" fill="white"/>
<path d="M473.818 424.973L478.874 428.647L480.711 426.119" fill="white"/>
<path d="M473.818 424.973H480.068V428.098" fill="white"/>
<path d="M483.436 431.961L481.504 426.017L478.532 426.983" fill="white"/>
<path d="M483.436 431.961L478.379 428.287L480.216 425.759" fill="white"/>
<path d="M476.088 431.961L481.145 428.288L479.308 425.759" fill="white"/>
<path d="M476.088 431.961L478.02 426.017L480.992 426.983" fill="white"/>
<path d="M437.619 457.322L435.688 463.266L438.66 464.231" fill="white"/>
<path d="M437.619 457.322L439.55 463.266L436.578 464.231" fill="white"/>
<path d="M443.563 461.64H437.313V464.765" fill="white"/>
<path d="M443.563 461.64L438.507 465.314L436.67 462.786" fill="white"/>
<path d="M431.675 461.64L436.731 465.314L438.568 462.786" fill="white"/>
<path d="M431.675 461.64H437.925V464.765" fill="white"/>
<path d="M441.293 468.628L439.361 462.684L436.389 463.649" fill="white"/>
<path d="M441.293 468.628L436.236 464.954L438.073 462.426" fill="white"/>
<path d="M433.945 468.628L439.002 464.954L437.165 462.426" fill="white"/>
<path d="M433.945 468.628L435.877 462.684L438.849 463.65" fill="white"/>
<path d="M437.381 476.19L435.836 480.946L438.214 481.718" fill="white"/>
<path d="M437.381 476.19L438.926 480.946L436.548 481.718" fill="white"/>
<path d="M442.136 479.645H437.136V482.145" fill="white"/>
<path d="M442.136 479.645L438.091 482.584L436.622 480.562" fill="white"/>
<path d="M432.626 479.645L436.671 482.584L438.14 480.562" fill="white"/>
<path d="M432.626 479.645H437.626V482.145" fill="white"/>
<path d="M440.32 485.235L438.775 480.48L436.397 481.253" fill="white"/>
<path d="M440.32 485.235L436.275 482.296L437.744 480.274" fill="white"/>
<path d="M434.442 485.236L438.487 482.297L437.018 480.274" fill="white"/>
<path d="M434.442 485.236L435.987 480.48L438.365 481.253" fill="white"/>
<path d="M455 444.762L453.455 449.517L455.833 450.29" fill="white"/>
<path d="M455 444.762L456.545 449.517L454.168 450.29" fill="white"/>
<path d="M459.755 448.217H454.755V450.717" fill="white"/>
<path d="M459.755 448.217L455.71 451.156L454.241 449.133" fill="white"/>
<path d="M450.245 448.217L454.29 451.156L455.759 449.133" fill="white"/>
<path d="M450.245 448.217H455.245V450.717" fill="white"/>
<path d="M457.939 453.807L456.394 449.052L454.016 449.824" fill="white"/>
<path d="M457.939 453.807L453.894 450.868L455.363 448.845" fill="white"/>
<path d="M452.061 453.807L456.106 450.868L454.637 448.846" fill="white"/>
<path d="M452.061 453.807L453.606 449.052L455.984 449.824" fill="white"/>
<path d="M469.048 434.702L467.116 440.646L470.088 441.612" fill="white"/>
<path d="M469.048 434.702L470.979 440.646L468.007 441.612" fill="white"/>
<path d="M474.992 439.021H468.742V442.146" fill="white"/>
<path d="M474.992 439.021L469.935 442.695L468.099 440.166" fill="white"/>
<path d="M463.104 439.021L468.16 442.695L469.997 440.166" fill="white"/>
<path d="M463.104 439.021H469.354V442.146" fill="white"/>
<path d="M472.721 446.009L470.79 440.064L467.818 441.03" fill="white"/>
<path d="M472.721 446.009L467.665 442.335L469.502 439.807" fill="white"/>
<path d="M465.374 446.009L470.43 442.335L468.593 439.807" fill="white"/>
<path d="M465.374 446.009L467.305 440.065L470.277 441.03" fill="white"/>
<path d="M436.905 441.428L435.36 446.184L437.737 446.956" fill="white"/>
<path d="M436.905 441.428L438.45 446.184L436.072 446.956" fill="white"/>
<path d="M441.66 444.883H436.66V447.383" fill="white"/>
<path d="M441.66 444.883L437.615 447.822L436.146 445.8" fill="white"/>
<path d="M432.15 444.884L436.195 447.822L437.664 445.8" fill="white"/>
<path d="M432.15 444.884H437.15V447.384" fill="white"/>
<path d="M439.844 450.473L438.299 445.718L435.921 446.491" fill="white"/>
<path d="M439.844 450.473L435.799 447.534L437.268 445.512" fill="white"/>
<path d="M433.966 450.474L438.011 447.535L436.541 445.512" fill="white"/>
<path d="M433.966 450.474L435.511 445.718L437.889 446.491" fill="white"/>
<path d="M283.333 350.893L281.402 356.837L284.374 357.803" fill="white"/>
<path d="M283.333 350.893L285.265 356.837L282.293 357.803" fill="white"/>
<path d="M289.277 355.211H283.027V358.336" fill="white"/>
<path d="M289.277 355.211L284.221 358.885L282.384 356.357" fill="white"/>
<path d="M277.389 355.211L282.446 358.885L284.282 356.357" fill="white"/>
<path d="M277.389 355.211H283.639V358.336" fill="white"/>
<path d="M287.007 362.199L285.076 356.255L282.104 357.221" fill="white"/>
<path d="M287.007 362.199L281.951 358.525L283.788 355.997" fill="white"/>
<path d="M279.66 362.199L284.716 358.526L282.879 355.997" fill="white"/>
<path d="M279.66 362.199L281.591 356.255L284.563 357.221" fill="white"/>
<path d="M397.619 336.19L396.074 340.946L398.452 341.718" fill="white"/>
<path d="M397.619 336.19L399.164 340.946L396.787 341.718" fill="white"/>
<path d="M402.374 339.645H397.374V342.145" fill="white"/>
<path d="M402.374 339.645L398.329 342.584L396.86 340.562" fill="white"/>
<path d="M392.864 339.646L396.909 342.584L398.378 340.562" fill="white"/>
<path d="M392.864 339.646H397.864V342.146" fill="white"/>
<path d="M400.558 345.235L399.013 340.48L396.635 341.253" fill="white"/>
<path d="M400.558 345.235L396.513 342.296L397.982 340.274" fill="white"/>
<path d="M394.68 345.236L398.725 342.297L397.256 340.274" fill="white"/>
<path d="M394.68 345.236L396.225 340.48L398.603 341.253" fill="white"/>
<path d="M350 421.072L347.682 428.204L351.249 429.363" fill="white"/>
<path d="M350 421.072L352.318 428.204L348.751 429.363" fill="white"/>
<path d="M357.133 426.254H349.633V430.004" fill="white"/>
<path d="M357.133 426.254L351.065 430.662L348.861 427.628" fill="white"/>
<path d="M342.867 426.254L348.935 430.662L351.139 427.628" fill="white"/>
<path d="M342.867 426.254H350.367V430.004" fill="white"/>
<path d="M354.408 434.639L352.091 427.506L348.524 428.665" fill="white"/>
<path d="M354.408 434.639L348.341 430.231L350.545 427.197" fill="white"/>
<path d="M345.592 434.639L351.659 430.231L349.455 427.197" fill="white"/>
<path d="M345.592 434.639L347.909 427.506L351.476 428.665" fill="white"/>
<path d="M370.238 387.56L368.307 393.504L371.279 394.469" fill="white"/>
<path d="M370.238 387.56L372.169 393.504L369.197 394.469" fill="white"/>
<path d="M376.182 391.878H369.932V395.003" fill="white"/>
<path d="M376.182 391.878L371.126 395.552L369.289 393.024" fill="white"/>
<path d="M364.294 391.878L369.35 395.552L371.187 393.024" fill="white"/>
<path d="M364.294 391.878H370.544V395.003" fill="white"/>
<path d="M373.912 398.866L371.98 392.922L369.008 393.887" fill="white"/>
<path d="M373.912 398.866L368.855 395.192L370.692 392.664" fill="white"/>
<path d="M366.564 398.866L371.621 395.192L369.784 392.664" fill="white"/>
<path d="M366.564 398.866L368.496 392.922L371.468 393.888" fill="white"/>
<path d="M350 371.845L348.069 377.789L351.041 378.755" fill="white"/>
<path d="M350 371.845L351.931 377.789L348.959 378.755" fill="white"/>
<path d="M355.944 376.164H349.694V379.289" fill="white"/>
<path d="M355.944 376.164L350.888 379.837L349.051 377.309" fill="white"/>
<path d="M344.056 376.164L349.112 379.837L350.949 377.309" fill="white"/>
<path d="M344.056 376.164H350.306V379.289" fill="white"/>
<path d="M353.674 383.151L351.742 377.207L348.77 378.173" fill="white"/>
<path d="M353.674 383.151L348.617 379.478L350.454 376.95" fill="white"/>
<path d="M346.326 383.152L351.383 379.478L349.546 376.95" fill="white"/>
<path d="M346.326 383.152L348.258 377.208L351.23 378.173" fill="white"/>
<path d="M332.381 388.81L330.836 393.565L333.214 394.337" fill="white"/>
<path d="M332.381 388.81L333.926 393.565L331.548 394.337" fill="white"/>
<path d="M337.136 392.264H332.136V394.764" fill="white"/>
<path d="M337.136 392.264L333.091 395.203L331.622 393.181" fill="white"/>
<path d="M327.626 392.264L331.671 395.203L333.14 393.181" fill="white"/>
<path d="M327.626 392.264H332.626V394.764" fill="white"/>
<path d="M335.32 397.854L333.775 393.099L331.397 393.872" fill="white"/>
<path d="M335.32 397.854L331.275 394.916L332.744 392.893" fill="white"/>
<path d="M329.442 397.855L333.487 394.916L332.018 392.893" fill="white"/>
<path d="M329.442 397.855L330.987 393.099L333.365 393.872" fill="white"/>
<path d="M341.191 402.381L340.087 405.777L341.785 406.329" fill="white"/>
<path d="M341.191 402.381L342.294 405.777L340.596 406.329" fill="white"/>
<path d="M344.587 404.849H341.016V406.634" fill="white"/>
<path d="M344.587 404.849L341.698 406.948L340.648 405.503" fill="white"/>
<path d="M337.794 404.849L340.683 406.948L341.733 405.503" fill="white"/>
<path d="M337.794 404.849H341.365V406.634" fill="white"/>
<path d="M343.29 408.842L342.186 405.445L340.488 405.997" fill="white"/>
<path d="M343.29 408.842L340.4 406.743L341.45 405.298" fill="white"/>
<path d="M339.091 408.842L341.981 406.742L340.931 405.298" fill="white"/>
<path d="M339.091 408.842L340.195 405.445L341.893 405.997" fill="white"/>
<path d="M402.381 461.607L400.45 467.551L403.422 468.517" fill="white"/>
<path d="M402.381 461.607L404.312 467.551L401.34 468.517" fill="white"/>
<path d="M408.325 465.926H402.075V469.051" fill="white"/>
<path d="M408.325 465.926L403.269 469.599L401.432 467.071" fill="white"/>
<path d="M396.437 465.926L401.493 469.599L403.33 467.071" fill="white"/>
<path d="M396.437 465.926H402.687V469.051" fill="white"/>
<path d="M406.055 472.913L404.123 466.969L401.151 467.935" fill="white"/>
<path d="M406.055 472.913L400.998 469.24L402.835 466.711" fill="white"/>
<path d="M398.707 472.914L403.764 469.24L401.927 466.712" fill="white"/>
<path d="M398.707 472.914L400.639 466.969L403.611 467.935" fill="white"/>
<path d="M417.381 447.381L415.836 452.136L418.214 452.909" fill="white"/>
<path d="M417.381 447.381L418.926 452.136L416.548 452.909" fill="white"/>
<path d="M422.136 450.836H417.136V453.336" fill="white"/>
<path d="M422.136 450.836L418.091 453.775L416.622 451.752" fill="white"/>
<path d="M412.626 450.836L416.671 453.775L418.14 451.752" fill="white"/>
<path d="M412.626 450.836H417.626V453.336" fill="white"/>
<path d="M420.32 456.426L418.775 451.67L416.397 452.443" fill="white"/>
<path d="M420.32 456.426L416.275 453.487L417.744 451.464" fill="white"/>
<path d="M414.442 456.426L418.487 453.487L417.018 451.465" fill="white"/>
<path d="M414.442 456.426L415.987 451.671L418.365 452.443" fill="white"/>
<path d="M388.572 443.095L387.026 447.85L389.404 448.623" fill="white"/>
<path d="M388.572 443.095L390.117 447.85L387.739 448.623" fill="white"/>
<path d="M393.327 446.55H388.327V449.05" fill="white"/>
<path d="M393.327 446.55L389.282 449.489L387.812 447.466" fill="white"/>
<path d="M383.816 446.55L387.861 449.489L389.331 447.467" fill="white"/>
<path d="M383.816 446.55H388.816V449.05" fill="white"/>
<path d="M391.51 452.14L389.965 447.385L387.588 448.157" fill="white"/>
<path d="M391.51 452.14L387.465 449.201L388.935 447.179" fill="white"/>
<path d="M385.632 452.14L389.678 449.201L388.208 447.179" fill="white"/>
<path d="M385.632 452.14L387.178 447.385L389.555 448.158" fill="white"/>
<path d="M279.762 435.357L277.444 442.49L281.011 443.649" fill="white"/>
<path d="M279.762 435.357L282.079 442.49L278.513 443.649" fill="white"/>
<path d="M286.895 440.54H279.395V444.29" fill="white"/>
<path d="M286.895 440.54L280.827 444.948L278.623 441.914" fill="white"/>
<path d="M272.629 440.54L278.697 444.948L280.901 441.914" fill="white"/>
<path d="M272.629 440.54H280.129V444.29" fill="white"/>
<path d="M284.17 448.925L281.853 441.792L278.286 442.951" fill="white"/>
<path d="M284.17 448.925L278.103 444.517L280.307 441.483" fill="white"/>
<path d="M275.353 448.925L281.421 444.516L279.217 441.483" fill="white"/>
<path d="M275.353 448.925L277.671 441.792L281.237 442.951" fill="white"/>
<path d="M350 484.405L349.227 486.782L350.416 487.169" fill="white"/>
<path d="M350 484.405L350.773 486.782L349.584 487.169" fill="white"/>
<path d="M352.378 486.132H349.878V487.382" fill="white"/>
<path d="M352.378 486.132L350.355 487.602L349.62 486.591" fill="white"/>
<path d="M347.622 486.132L349.645 487.602L350.38 486.591" fill="white"/>
<path d="M347.622 486.132H350.122V487.382" fill="white"/>
<path d="M351.469 488.927L350.697 486.55L349.508 486.936" fill="white"/>
<path d="M351.469 488.927L349.447 487.458L350.182 486.447" fill="white"/>
<path d="M348.531 488.927L350.553 487.458L349.818 486.447" fill="white"/>
<path d="M348.531 488.927L349.303 486.55L350.492 486.936" fill="white"/>
</g>
</g>
<defs>
<clipPath id="clip0_97_1983">
<rect width="1000" height="700" fill="white" transform="translate(-150)"/>
</clipPath>
</defs>
</svg>
