<svg width="700" height="700" viewBox="0 0 700 700" fill="none" xmlns="http://www.w3.org/2000/svg">
<mask id="mask0_97_2065" style="mask-type:alpha" maskUnits="userSpaceOnUse" x="0" y="0" width="700" height="700">
<circle cx="350" cy="350" r="350" fill="#D9D9D9"/>
</mask>
<g mask="url(#mask0_97_2065)">
<g clip-path="url(#clip0_97_2065)">
<path d="M1085 0H-150V650H1085V0Z" fill="#B22234"/>
<path d="M-150 75H1085ZM1085 175H-150ZM-150 275H1085ZM1085 375H-150ZM-150 475H1085ZM1085 575H-150Z" fill="black"/>
<path d="M-150 75H1085M1085 175H-150M-150 275H1085M1085 375H-150M-150 475H1085M1085 575H-150" stroke="white" stroke-width="50"/>
<path d="M344 0H-150V350H344V0Z" fill="#3C3B6E"/>
<path d="M14.6666 50L26.4223 86.1803L-4.35449 63.8197H33.6878L2.91093 86.1803L14.6666 50Z" fill="white"/>
<path d="M14.6666 120L26.4223 156.18L-4.35449 133.82H33.6878L2.91093 156.18L14.6666 120Z" fill="white"/>
<path d="M14.6666 190L26.4223 226.18L-4.35449 203.82H33.6878L2.91093 226.18L14.6666 190Z" fill="white"/>
<path d="M14.6666 260L26.4223 296.18L-4.35449 273.82H33.6878L2.91093 296.18L14.6666 260Z" fill="white"/>
<path d="M55.8333 15L67.589 51.1803L36.8121 28.8197H74.8544L44.0776 51.1803L55.8333 15Z" fill="white"/>
<path d="M55.8333 85L67.589 121.18L36.8121 98.8197H74.8544L44.0776 121.18L55.8333 85Z" fill="white"/>
<path d="M55.8333 155L67.589 191.18L36.8121 168.82H74.8544L44.0776 191.18L55.8333 155Z" fill="white"/>
<path d="M55.8333 225L67.589 261.18L36.8121 238.82H74.8544L44.0776 261.18L55.8333 225Z" fill="white"/>
<path d="M55.8333 295L67.589 331.18L36.8121 308.82H74.8544L44.0776 331.18L55.8333 295Z" fill="white"/>
<path d="M96.9999 50L108.756 86.1803L77.9788 63.8197H116.021L85.2442 86.1803L96.9999 50Z" fill="white"/>
<path d="M96.9999 120L108.756 156.18L77.9788 133.82H116.021L85.2442 156.18L96.9999 120Z" fill="white"/>
<path d="M96.9999 190L108.756 226.18L77.9788 203.82H116.021L85.2442 226.18L96.9999 190Z" fill="white"/>
<path d="M96.9999 260L108.756 296.18L77.9788 273.82H116.021L85.2442 296.18L96.9999 260Z" fill="white"/>
<path d="M138.167 15L149.922 51.1803L119.146 28.8197H157.188L126.411 51.1803L138.167 15Z" fill="white"/>
<path d="M138.167 85L149.922 121.18L119.146 98.8197H157.188L126.411 121.18L138.167 85Z" fill="white"/>
<path d="M138.167 155L149.922 191.18L119.146 168.82H157.188L126.411 191.18L138.167 155Z" fill="white"/>
<path d="M138.167 225L149.922 261.18L119.146 238.82H157.188L126.411 261.18L138.167 225Z" fill="white"/>
<path d="M138.167 295L149.922 331.18L119.146 308.82H157.188L126.411 331.18L138.167 295Z" fill="white"/>
<path d="M179.333 50L191.089 86.1803L160.312 63.8197H198.355L167.578 86.1803L179.333 50Z" fill="white"/>
<path d="M179.333 120L191.089 156.18L160.312 133.82H198.355L167.578 156.18L179.333 120Z" fill="white"/>
<path d="M179.333 190L191.089 226.18L160.312 203.82H198.355L167.578 226.18L179.333 190Z" fill="white"/>
<path d="M179.333 260L191.089 296.18L160.312 273.82H198.355L167.578 296.18L179.333 260Z" fill="white"/>
<path d="M220.5 15L232.256 51.1803L201.479 28.8197H239.521L208.744 51.1803L220.5 15Z" fill="white"/>
<path d="M220.5 85L232.256 121.18L201.479 98.8197H239.521L208.744 121.18L220.5 85Z" fill="white"/>
<path d="M220.5 155L232.256 191.18L201.479 168.82H239.521L208.744 191.18L220.5 155Z" fill="white"/>
<path d="M220.5 225L232.256 261.18L201.479 238.82H239.521L208.744 261.18L220.5 225Z" fill="white"/>
<path d="M220.5 295L232.256 331.18L201.479 308.82H239.521L208.744 331.18L220.5 295Z" fill="white"/>
<path d="M261.667 50L273.423 86.1803L242.646 63.8197H280.688L249.911 86.1803L261.667 50Z" fill="white"/>
<path d="M261.667 120L273.423 156.18L242.646 133.82H280.688L249.911 156.18L261.667 120Z" fill="white"/>
<path d="M261.667 190L273.423 226.18L242.646 203.82H280.688L249.911 226.18L261.667 190Z" fill="white"/>
<path d="M261.667 260L273.423 296.18L242.646 273.82H280.688L249.911 296.18L261.667 260Z" fill="white"/>
<path d="M302.833 15L314.589 51.1803L283.812 28.8197H321.855L291.078 51.1803L302.833 15Z" fill="white"/>
<path d="M302.833 85L314.589 121.18L283.812 98.8197H321.855L291.078 121.18L302.833 85Z" fill="white"/>
<path d="M302.833 155L314.589 191.18L283.812 168.82H321.855L291.078 191.18L302.833 155Z" fill="white"/>
<path d="M302.833 225L314.589 261.18L283.812 238.82H321.855L291.078 261.18L302.833 225Z" fill="white"/>
<path d="M302.833 295L314.589 331.18L283.812 308.82H321.855L291.078 331.18L302.833 295Z" fill="white"/>
</g>
</g>
<defs>
<clipPath id="clip0_97_2065">
<rect width="1235" height="650" fill="white" transform="translate(-150)"/>
</clipPath>
</defs>
</svg>
