<svg width="200" height="120" viewBox="0 0 200 120" fill="none" xmlns="http://www.w3.org/2000/svg">
<path d="M56.8421 43.7802C56.8421 46.2197 57.1053 48.1977 57.5658 49.6483C58.0921 51.0988 58.75 52.6813 59.6711 54.3955C60 54.923 60.1316 55.4505 60.1316 55.912C60.1316 56.5714 59.7368 57.2307 58.8816 57.8901L54.7368 60.6593C54.1447 61.0549 53.5526 61.2527 53.0263 61.2527C52.3684 61.2527 51.7105 60.923 51.0526 60.3296C50.1316 59.3406 49.3421 58.2857 48.6842 57.2307C48.0263 56.1098 47.3684 54.8571 46.6447 53.3406C41.5132 59.4065 35.0658 62.4395 27.3026 62.4395C21.7763 62.4395 17.3684 60.8571 14.1447 57.6922C10.9211 54.5274 9.27631 50.3076 9.27631 45.0329C9.27631 39.4285 11.25 34.8791 15.2632 31.4505C19.2763 28.0219 24.6053 26.3076 31.3816 26.3076C33.6184 26.3076 35.9211 26.5054 38.3553 26.8351C40.7895 27.1648 43.2895 27.6923 45.9211 28.2857V23.4725C45.9211 18.4615 44.8684 14.967 42.8289 12.923C40.7237 10.8791 37.1711 9.89005 32.1053 9.89005C29.8026 9.89005 27.4342 10.1538 25 10.7472C22.5658 11.3406 20.1974 12.0659 17.8947 12.989C16.8421 13.4505 16.0526 13.7142 15.5921 13.8461C15.1316 13.978 14.8026 14.0439 14.5395 14.0439C13.6184 14.0439 13.1579 13.3846 13.1579 11.9999V8.76918C13.1579 7.71423 13.2895 6.92302 13.6184 6.46148C13.9474 5.99994 14.5395 5.53841 15.4605 5.07687C17.7632 3.89005 20.5263 2.90104 23.75 2.10983C26.9737 1.25269 30.3947 0.857088 34.0132 0.857088C41.8421 0.857088 47.5658 2.63731 51.25 6.19775C54.8684 9.75819 56.7105 15.1648 56.7105 22.4175V43.7802H56.8421ZM30.1316 53.8021C32.3026 53.8021 34.5395 53.4065 36.9079 52.6153C39.2763 51.8241 41.3816 50.3736 43.1579 48.3955C44.2105 47.1428 45 45.7582 45.3947 44.1758C45.7895 42.5933 46.0526 40.6813 46.0526 38.4395V35.6703C44.1447 35.2087 42.1053 34.8131 40 34.5494C37.8947 34.2857 35.8553 34.1538 33.8158 34.1538C29.4079 34.1538 26.1842 35.0109 24.0132 36.7912C21.8421 38.5714 20.7895 41.0769 20.7895 44.3736C20.7895 47.4725 21.5789 49.7802 23.2237 51.3626C24.8026 53.0109 27.1053 53.8021 30.1316 53.8021ZM82.9605 60.923C81.7763 60.923 80.9868 60.7252 80.4605 60.2637C79.9342 59.8681 79.4737 58.945 79.0789 57.6922L63.6184 6.72522C63.2237 5.40654 63.0263 4.5494 63.0263 4.08786C63.0263 3.03291 63.5526 2.43951 64.6053 2.43951H71.0526C72.3026 2.43951 73.1579 2.63731 73.6184 3.09885C74.1447 3.49445 74.5395 4.41753 74.9342 5.67027L85.9868 49.3186L96.25 5.67027C96.5789 4.35159 96.9737 3.49445 97.5 3.09885C98.0263 2.70324 98.9474 2.43951 100.132 2.43951H105.395C106.645 2.43951 107.5 2.63731 108.026 3.09885C108.553 3.49445 109.013 4.41753 109.276 5.67027L119.671 49.8461L131.053 5.67027C131.447 4.35159 131.908 3.49445 132.368 3.09885C132.895 2.70324 133.75 2.43951 134.934 2.43951H141.053C142.105 2.43951 142.697 2.96698 142.697 4.08786C142.697 4.41753 142.632 4.7472 142.566 5.1428C142.5 5.53841 142.368 6.06588 142.105 6.79115L126.25 57.7582C125.855 59.0769 125.395 59.934 124.868 60.3296C124.342 60.7252 123.487 60.989 122.368 60.989H116.711C115.461 60.989 114.605 60.7912 114.079 60.3296C113.553 59.8681 113.092 59.0109 112.829 57.6922L102.632 15.1648L92.5 57.6263C92.1711 58.945 91.7763 59.8021 91.25 60.2637C90.7237 60.7252 89.8026 60.923 88.6184 60.923H82.9605ZM167.5 62.7032C164.079 62.7032 160.658 62.3076 157.368 61.5164C154.079 60.7252 151.513 59.8681 149.803 58.8791C148.75 58.2857 148.026 57.6263 147.763 57.0329C147.5 56.4395 147.368 55.7802 147.368 55.1868V51.8241C147.368 50.4395 147.895 49.7802 148.882 49.7802C149.276 49.7802 149.671 49.8461 150.066 49.978C150.461 50.1098 151.053 50.3736 151.711 50.6373C153.947 51.6263 156.382 52.4175 158.947 52.945C161.579 53.4725 164.145 53.7362 166.776 53.7362C170.921 53.7362 174.145 53.0109 176.382 51.5604C178.618 50.1098 179.803 47.9999 179.803 45.2966C179.803 43.4505 179.211 41.934 178.026 40.6813C176.842 39.4285 174.605 38.3076 171.382 37.2527L161.842 34.2857C157.039 32.7692 153.487 30.5274 151.316 27.5604C149.145 24.6593 148.026 21.4285 148.026 17.9999C148.026 15.2307 148.618 12.7912 149.803 10.6813C150.987 8.57137 152.566 6.72522 154.539 5.27467C156.513 3.75819 158.75 2.63731 161.382 1.8461C164.013 1.05489 166.776 0.72522 169.671 0.72522C171.118 0.72522 172.632 0.791154 174.079 0.988956C175.592 1.18676 176.974 1.45049 178.355 1.71423C179.671 2.0439 180.921 2.37357 182.105 2.76918C183.289 3.16478 184.211 3.56038 184.868 3.95599C185.789 4.48346 186.447 5.01093 186.842 5.60434C187.237 6.13181 187.434 6.85709 187.434 7.78016V10.8791C187.434 12.2637 186.908 12.989 185.921 12.989C185.395 12.989 184.539 12.7252 183.421 12.1977C179.671 10.4835 175.461 9.62632 170.789 9.62632C167.039 9.62632 164.079 10.2197 162.039 11.4725C160 12.7252 158.947 14.6373 158.947 17.3406C158.947 19.1868 159.605 20.7692 160.921 22.0219C162.237 23.2747 164.671 24.5274 168.158 25.6483L177.5 28.6153C182.237 30.1318 185.658 32.2417 187.697 34.945C189.737 37.6483 190.724 40.7472 190.724 44.1758C190.724 47.0109 190.132 49.5824 189.013 51.8241C187.829 54.0659 186.25 56.0439 184.211 57.6263C182.171 59.2747 179.737 60.4615 176.908 61.3186C173.947 62.2417 170.855 62.7032 167.5 62.7032Z" fill="#2E2E2E"/>
<path fill-rule="evenodd" clip-rule="evenodd" d="M179.934 94.7472C158.289 110.769 126.842 119.275 99.8026 119.275C61.9079 119.275 27.7632 105.231 1.97369 81.8901C-0.0657879 80.0439 1.77632 77.5385 4.21053 78.989C32.1053 95.2088 66.5132 105.033 102.105 105.033C126.118 105.033 152.5 100.022 176.776 89.7363C180.395 88.0879 183.487 92.1099 179.934 94.7472Z" fill="#2E2E2E"/>
<path fill-rule="evenodd" clip-rule="evenodd" d="M188.947 84.4615C186.184 80.9011 170.658 82.7472 163.618 83.6043C161.513 83.8681 161.184 82.0219 163.092 80.6373C175.461 71.934 195.789 74.4395 198.158 77.3406C200.526 80.3076 197.5 100.681 185.921 110.44C184.145 111.956 182.434 111.165 183.224 109.187C185.855 102.659 191.711 87.956 188.947 84.4615Z" fill="#2E2E2E"/>
</svg>
