<svg width="240" height="120" viewBox="0 0 240 120" fill="none" xmlns="http://www.w3.org/2000/svg">
<path fill-rule="evenodd" clip-rule="evenodd" d="M63.549 19.7821C62.9669 19.7821 62.4151 19.9106 61.9238 20.0845C62.9821 20.795 63.5717 21.7323 63.8665 22.8057C63.8891 22.9569 63.9269 23.0552 63.942 23.1988C63.9572 23.3424 63.9874 23.4482 63.9874 23.5767C64.063 25.4136 63.5112 25.6404 63.1106 26.7289C62.8265 27.3864 62.7049 28.1027 62.7562 28.8172C62.8076 29.5317 63.0302 30.2232 63.4054 30.8334C63.4721 30.9955 63.5557 31.15 63.6548 31.2945C62.8611 26.0183 67.2605 25.2246 68.0769 23.5843C68.1373 22.0725 66.943 21.1881 66.0132 20.5153C65.2755 20.0502 64.4211 19.8038 63.549 19.8048V19.7821ZM70.1783 20.9689C70.1027 21.4451 70.1556 21.3242 70.1329 21.5736L70.0876 22.1179L69.9364 22.6168C69.8903 22.786 69.8348 22.9526 69.7701 23.1156L69.5433 23.5919C69.4828 23.6675 69.4375 23.7582 69.377 23.8413L69.2485 24.0303L68.9461 24.446C68.8176 24.5745 68.7194 24.7182 68.5682 24.824C68.417 24.9298 68.3187 25.0734 68.1751 25.1793C67.7367 25.5119 67.2378 25.7613 66.7767 26.0864C66.6255 26.1922 66.4743 26.2753 66.361 26.3887C66.2476 26.5021 66.0888 26.6004 65.9679 26.7213C65.8469 26.8423 65.7184 26.9708 65.5899 27.1144C65.4614 27.258 65.3632 27.3865 65.2876 27.5301L64.9852 27.9686L64.7584 28.4448L64.5921 28.921L64.4409 29.4501C64.4183 29.5257 64.4183 29.6391 64.3956 29.7223C64.3729 29.8054 64.3729 29.8886 64.3502 29.9717L64.3276 30.5008C64.3246 30.6272 64.3322 30.7537 64.3502 30.8788C64.3502 31.0451 64.3729 31.2114 64.4107 31.4079C64.4485 31.6045 64.4712 31.7405 64.5165 31.9068L64.6828 32.4057C64.7282 32.5116 64.7887 32.6174 64.834 32.7081L60.0416 30.8486L57.6227 30.2212L56.3074 29.9188C55.0525 29.6697 53.7861 29.4831 52.5128 29.3594C51.2376 29.2189 49.9557 29.1482 48.6728 29.1478L45.9515 29.2536C44.6724 29.3455 43.3984 29.4994 42.1342 29.7147L41.1969 29.881L39.3222 30.2967L38.3849 30.5462L37.4778 30.9393L36.7975 31.2416L36.1172 31.5742C36.0567 31.5969 36.0113 31.6196 35.966 31.6347L35.3159 31.9673C35.1647 32.0278 35.0135 32.1185 34.9002 32.179C34.8397 32.2243 34.749 32.2545 34.7112 32.2848L34.1669 32.5871C33.978 32.693 33.8117 32.7988 33.668 32.8895L33.2523 33.1919L32.7987 33.5245L32.4435 33.8268C32.2167 33.9931 32.1109 34.099 32.005 34.1821L31.5515 34.6205L31.1358 35.0136L30.7805 35.3916C30.7351 35.4369 30.6747 35.4671 30.6293 35.5201C30.5235 35.6486 30.4025 35.7695 30.274 35.898L29.7147 36.5027L28.5808 37.5837C28.2122 37.9125 27.8234 38.218 27.4167 38.4983L26.1619 39.292C25.7358 39.5262 25.2967 39.7356 24.8466 39.9194C24.4082 40.1084 23.9395 40.2747 23.486 40.4183C22.6091 40.6073 21.7172 40.9626 20.9386 41.0231C20.7723 41.0231 20.5833 41.0684 20.4095 41.0835L19.8803 41.212L19.3814 41.401C19.2151 41.4615 19.0488 41.5522 18.8825 41.6278C18.7162 41.7034 18.5802 41.8167 18.429 41.9301C18.2811 42.0372 18.1421 42.156 18.0132 42.2854C17.8621 42.3912 17.7109 42.5349 17.5975 42.6634L17.2422 43.0791C17.1364 43.2454 17.0154 43.3815 16.9398 43.5553C16.8643 43.7292 16.7282 43.8577 16.6375 44.0316L16.4107 44.5758L16.2217 45.1201L16.1159 45.619C16.0554 45.8684 16.0554 46.1179 16.0403 46.2464C16.0252 46.3749 15.995 46.5185 15.995 46.6621C15.995 46.7377 15.995 46.8511 16.0176 46.9342C16.0403 47.0854 16.063 47.2064 16.0932 47.3273L16.2444 47.7053C16.3049 47.8564 16.3956 47.9774 16.4712 48.0983L16.7433 48.4763L17.0986 48.8089C17.2271 48.9374 17.348 49.0356 17.4917 49.1415C17.9906 49.5799 18.1191 49.7235 18.7616 50.0486C18.8674 50.109 18.9732 50.1544 19.0942 50.2149C19.2 50.5172 19.2454 50.6684 19.2832 50.8423C19.321 51.0161 19.389 51.1975 19.4495 51.3412L19.6158 51.7191L19.9181 52.2785L20.2205 52.7169L20.5758 53.11C20.7043 53.2385 20.8252 53.3368 20.9688 53.4653L21.3846 53.7676C21.5307 53.8706 21.6849 53.9616 21.8457 54.0397C21.9969 54.1153 22.148 54.206 22.3219 54.2665C22.4504 54.327 22.594 54.3723 22.7376 54.4177C22.8813 54.463 23.0098 54.4933 23.0929 54.5235C23.0324 55.6574 23.0173 56.7912 23.1685 57.0936C23.3575 57.5093 24.2721 56.2394 25.1943 54.7805C25.0658 56.2923 24.9827 57.91 25.1943 58.4089C25.406 58.9078 26.6759 57.3053 27.7644 55.5062C42.5499 52.0895 56.0353 62.3093 57.4715 76.732C57.1994 74.4794 54.4252 73.2322 53.1628 73.5421C52.5354 75.0842 51.4772 77.0646 49.7613 78.3043C49.9096 76.9109 49.8382 75.5029 49.5496 74.1317C49.0961 76.0517 48.189 77.8356 46.9644 79.3853C46.0094 79.4502 45.0531 79.2786 44.1802 78.8857C43.3074 78.4928 42.5449 77.8907 41.9603 77.1327C41.8847 77.0722 41.8545 76.9437 41.794 76.8605L41.5748 76.3465C41.5143 76.1953 41.469 76.0442 41.4463 75.9081C41.4236 75.772 41.4236 75.6057 41.4236 75.4545V75.1522C41.4463 75.001 41.4841 74.8498 41.5295 74.7138L41.6806 74.2753C41.7562 74.1242 41.8318 73.973 41.9301 73.8369C42.2854 72.8391 42.2854 72.0227 41.6277 71.5465C41.4992 71.4709 41.3783 71.3953 41.2346 71.3349C41.1591 71.3122 41.0457 71.2744 40.9625 71.2593L40.7962 71.1988L40.3578 71.093C40.2152 71.0524 40.0676 71.0321 39.9194 71.0325C39.7669 71.0069 39.6128 70.9918 39.4583 70.9871C39.3524 70.9871 39.2466 71.0098 39.1559 71.0098C38.9896 71.0098 38.8535 71.0325 38.7024 71.0703L38.2639 71.1459L37.8255 71.2971L37.4098 71.486L37.0167 71.6977C32.1562 74.8725 35.0513 82.2804 38.3773 84.4423C37.1225 84.669 35.8526 84.9412 35.5049 85.2133C36.3591 85.7953 37.2964 86.2564 38.2791 86.7251L41.658 87.7229C43.383 88.0928 45.1506 88.225 46.9115 88.116C56.1487 87.4659 63.7228 80.4435 65.0986 71.1837L65.2271 71.7279L65.4161 72.892C65.4614 73.1037 65.4765 73.2851 65.4917 73.4514L65.537 74.0788L65.5824 74.7591V75.0917C65.5824 75.1975 65.605 75.3185 65.605 75.4243C65.605 75.5301 65.5824 75.6738 65.5824 75.8023V76.1046C65.5824 76.2558 65.5597 76.3768 65.5597 76.5204C65.5597 76.596 65.5597 76.6867 65.537 76.7925L65.5143 77.246C65.4917 77.3065 65.4917 77.3745 65.4917 77.435L65.4312 77.9112C65.4312 77.9717 65.4312 78.0397 65.4085 78.1002L65.3329 78.7049V78.7427L65.2044 79.3248L65.0759 79.9522L64.7433 81.2372L64.5317 81.9024L64.0781 83.1119L63.8287 83.7166L63.5263 84.2986C63.5036 84.3591 63.4809 84.4045 63.4658 84.4498C62.0759 87.2338 60.0542 89.6541 57.5622 91.5175C57.3959 91.6234 57.2296 91.7443 57.0633 91.8728C57.018 91.9182 56.9575 91.9333 56.9121 91.9786L56.4586 92.281L56.5191 92.4095H56.5417L57.4186 92.281H57.4413L59.0665 91.9786C59.2176 91.956 59.3688 91.9182 59.52 91.8728L59.8224 91.8123L60.2608 91.7367L60.6387 91.6309C62.7051 91.127 64.7274 90.4571 66.686 89.6278C63.3357 94.1932 58.88 97.8321 53.7373 100.203C56.1451 100.043 58.5293 99.6304 60.8504 98.9708C69.2561 96.4914 76.3238 90.8372 80.5569 83.2253C79.7027 88.0404 77.7827 92.6287 74.948 96.635C76.9739 95.2971 78.8258 93.7626 80.5191 92.0089C85.1906 87.1257 88.2595 80.9349 89.2876 74.2829C89.9981 77.5786 90.1946 80.9802 89.8923 84.3364C104.95 63.3374 91.1471 41.5673 85.3569 35.83C85.2813 35.9812 85.251 36.2231 85.2359 36.4801L85.0243 37.8785L84.669 39.2542L84.1701 40.5922L83.5427 41.8621L82.7868 43.0489L81.9326 44.1827C81.6302 44.5607 81.2825 44.8933 80.9499 45.2259L80.3452 45.755L79.869 46.1708C79.4979 46.4664 79.1092 46.739 78.7049 46.9871L77.4728 47.6977L76.1575 48.2797C75.7138 48.4477 75.2623 48.594 74.8044 48.7182L73.406 49.0205C72.9298 49.0961 72.446 49.149 71.9849 49.1868L70.9871 49.2322C70.5109 49.2322 70.0271 49.1868 69.566 49.1566C69.0882 49.1213 68.6133 49.0531 68.1449 48.9525C67.6687 48.8769 67.2076 48.7408 66.7465 48.5972H66.7238L68.0995 48.4309L69.498 48.1286L70.8586 47.6901C71.3121 47.5238 71.7657 47.3122 72.1739 47.1081C72.6031 46.8995 73.0219 46.6699 73.4287 46.4202L74.5928 45.6643C74.9671 45.3743 75.3231 45.0612 75.6586 44.727C76.0071 44.4076 76.3353 44.0668 76.6413 43.7065L77.5181 42.5727C77.5635 42.5122 77.5937 42.4215 77.6466 42.361L78.2513 41.3632L78.8787 40.0933L79.3776 38.7553C79.5288 38.3169 79.6271 37.8482 79.7329 37.3947L79.9446 35.9963L80.0202 34.5752L79.9824 33.5774L79.8161 32.179L79.5137 30.7805L79.0602 29.4426C78.8939 29.0042 78.6822 28.5657 78.4781 28.1575L77.7676 26.9254L77.0117 25.7764L76.0517 24.7182L75.5074 24.189L72.6123 22.1481C72.4611 22.0725 72.3402 21.9969 72.1965 21.9364C71.5162 21.498 70.8586 21.2712 70.2161 21.0596L70.1783 20.9689Z" fill="#2E2E2E"/>
<path d="M111.919 74.124C112.403 73.894 112.914 73.7239 113.439 73.6176C114.61 73.4286 115.276 73.2699 115.465 73.1414C115.782 72.9524 115.994 72.6878 116.1 72.4459C116.228 71.9924 116.289 71.0853 116.289 69.6264V66.8674L116.319 64.6148L116.22 61.251V59.2629C116.22 57.9326 116.122 56.8214 115.903 55.9974C115.843 55.68 115.555 55.3625 115.109 55.045C114.505 54.5915 113.597 54.1908 112.101 53.7751L112.071 52.2633L112.796 52.1121C113.023 52.0818 113.877 51.8551 115.366 51.4771L117.619 50.5927L118.148 50.3055C118.419 50.0753 118.704 49.8632 119.002 49.6705C119.856 48.9974 120.623 48.2204 121.285 47.3574L122.963 47.2289L122.903 50.8119C122.872 51.1596 122.872 51.4469 122.872 51.6661L122.903 53.125C124.679 51.6132 126.266 50.5549 127.725 49.9502C129.417 49.2028 131.243 48.8043 133.092 48.7785C134.955 48.741 136.787 49.2595 138.353 50.2677C139.835 51.2503 140.848 52.3842 141.377 53.6692C141.906 54.9543 142.072 57.6 142.072 61.5004L141.944 71.9017C141.937 72.3167 142.025 72.7278 142.201 73.1036C142.762 73.3606 143.363 73.5215 143.977 73.5798L145.534 73.867C145.733 74.1669 145.833 74.5207 145.822 74.88L145.792 75.9231L139.548 75.4696L137.711 75.53H136.252L132.034 75.8475H130.953C130.923 75.5603 130.923 75.3713 130.923 75.2126L130.983 73.9729C131.271 73.9124 132.026 73.8217 133.206 73.6554C133.523 73.6252 133.871 73.5269 134.287 73.4286C134.702 73.2774 134.952 73.0809 135.012 72.9222C135.163 72.5442 135.269 71.879 135.269 70.8585L135.209 66.7389L135.239 63.0576C135.239 58.5524 134.982 55.7631 134.483 54.6897C133.727 53.0721 132.457 52.2708 130.84 52.2708C129.559 52.3008 128.302 52.6159 127.158 53.193C125.705 53.9044 124.369 54.8349 123.197 55.9521L123.137 56.4812L123.197 58.4768L123.167 60.5933L123.296 65.6957L123.235 66.4894C123.235 69.9439 123.364 71.9092 123.651 72.3552C123.938 72.8012 124.981 73.2774 126.826 73.8141L126.924 74.6078C126.924 74.8648 126.826 75.2428 126.697 75.7795L125.019 75.8097C124.318 75.7883 123.619 75.7252 122.925 75.6207L119.433 75.5905L112.078 75.8173C111.99 75.6067 111.946 75.3803 111.95 75.1521L111.98 74.1392L111.919 74.124ZM149.367 58.9606C149.934 57.1464 150.41 55.9521 150.856 55.3776C152.028 53.639 153.298 52.354 154.636 51.2957C155.974 50.2374 157.206 49.6781 158.279 49.3606C159.387 49.003 160.54 48.7995 161.703 48.7559C163.324 48.7119 164.945 48.8719 166.526 49.2321C167.634 49.466 168.688 49.9071 169.633 50.5322C170.676 51.2533 171.633 52.0929 172.483 53.0343C173.229 53.9323 173.819 54.9493 174.229 56.0428C174.735 57.3688 175.003 58.7735 175.022 60.1927L171.47 60.1322C169.324 60.083 167.179 59.9872 165.037 59.845L162.497 59.7165L159.073 59.7467H156.314L156.253 60.5026C156.253 61.6365 156.404 62.8157 156.669 64.0856C156.934 65.3555 157.364 66.3987 157.909 67.3511C158.447 68.2718 159.146 69.0885 159.972 69.7625C160.728 70.4579 161.65 70.9341 162.512 71.2516L164.349 71.8563L167.645 71.7052C168.553 71.5196 169.444 71.254 170.306 70.9114C171.299 70.4364 172.244 69.8641 173.125 69.2031L175.06 70.7149C173.193 72.7407 171.22 74.2677 169.225 75.2503C167.229 76.233 164.976 76.611 162.421 76.611C160.743 76.611 159.375 76.4825 158.302 76.1574C156.932 75.8 155.634 75.212 154.462 74.4189C153.314 73.6023 152.295 72.6189 151.438 71.5011C150.531 70.3672 149.979 69.12 149.571 67.8878C149.065 66.2702 148.777 64.97 148.777 64.0176C148.761 62.3361 148.913 60.6572 149.231 59.0059L149.367 58.9606ZM167.887 57.6C167.856 56.3905 167.63 55.2869 167.191 54.1757C166.753 53.0645 166.057 52.2708 165.097 51.6812C164.269 51.1034 163.288 50.7826 162.278 50.759C160.766 50.759 159.579 51.394 158.408 52.6261C157.236 53.8582 156.631 55.6497 156.472 57.7285L163.729 57.7587L165.694 57.6604L167.025 57.5622L167.879 57.5924L167.887 57.6ZM179.981 66.8371C180.441 66.7327 180.909 66.6695 181.38 66.6481L182.045 66.6784L182.332 66.9959L184.615 70.6771C185.34 71.5313 186.074 72.2343 186.883 72.771C187.359 73.0885 188.122 73.4664 189.165 73.8141C189.888 74.0705 190.651 74.1985 191.418 74.1921C192.68 74.2245 193.906 73.7697 194.842 72.9222C195.795 72.0378 196.354 71.108 196.354 70.1026C196.354 69.4374 196.165 68.863 195.825 68.3943C195.485 67.9256 194.744 67.4418 193.671 66.8825C193.141 66.6557 191.803 66.2778 189.642 65.7486L185.953 64.7055C184.977 64.3414 184.076 63.8036 183.292 63.1181C182.548 62.4767 181.943 61.6894 181.516 60.805C180.986 59.5955 180.76 58.5524 180.76 57.7814C180.76 56.1637 181.017 54.8636 181.455 53.8204C181.937 52.79 182.615 51.8632 183.451 51.0916C184.055 50.4869 184.963 49.9578 186.21 49.474C187.484 48.9876 188.837 48.7415 190.201 48.7483C191.986 48.7244 193.77 48.8635 195.53 49.1641C196.873 49.3907 198.176 49.8082 199.4 50.4037C199.551 50.88 199.718 52.0214 199.967 53.7675L200.315 56.9045C200.315 57.0557 200.285 57.222 200.217 57.3807C199.764 57.5272 199.294 57.6136 198.818 57.6378C198.629 57.6378 198.312 57.6075 197.896 57.5773C197.625 57.145 197.373 56.7011 197.14 56.2469C196.127 54.342 195.077 53.0116 194.003 52.2557C192.93 51.4998 191.72 51.084 190.224 51.084C188.727 51.084 187.525 51.5376 186.542 52.354C186.183 52.6687 185.899 53.0605 185.711 53.5003C185.524 53.94 185.439 54.4164 185.461 54.8938C185.461 55.5892 185.839 56.2922 186.595 57.0103C187.351 57.7285 188.621 58.3105 190.466 58.6885C193.262 59.2932 195.318 59.9281 196.619 60.5253C198.523 61.4097 199.884 62.4907 200.648 63.7001C201.411 64.9096 201.819 66.3004 201.819 67.8878C201.819 70.3596 200.867 72.4233 199 74.0711C197.133 75.719 194.464 76.5127 190.881 76.5127C189.663 76.455 188.448 76.3491 187.238 76.1952C186.353 76.097 185.303 75.8778 184.101 75.5603C183.307 75.2871 182.525 74.9794 181.757 74.6381C181.559 74.5234 181.387 74.369 181.251 74.1845C181.191 73.9955 181.024 73.1036 180.835 71.5237L180.306 66.8598L179.981 66.8371ZM206.105 51.6132C208.6 50.57 210.414 49.5193 211.525 48.5896C212.636 47.6598 213.838 45.891 215.108 43.6006H216.922C217.113 44.1631 217.21 44.7529 217.209 45.3467L217.179 47.947L217.081 49.8141L217.111 50.5398L217.837 50.57L220.815 50.4415L223.196 50.3811C223.322 50.8784 223.396 51.3877 223.415 51.9004C223.415 52.4069 223.317 52.9814 223.158 53.6088C222.633 53.6871 222.102 53.73 221.571 53.7373C221.42 53.7373 221.065 53.7373 220.558 53.6768H218.91L218.336 53.6466L216.824 53.707L216.763 65.8015L216.892 70.2085C217.027 70.8149 217.287 71.3865 217.655 71.8866C218.162 72.1205 218.715 72.2393 219.273 72.2343C219.84 72.2343 220.256 72.1738 220.543 72.0831C220.83 71.9924 221.299 71.6674 221.941 71.1609C222.07 71.0324 222.289 70.9039 222.546 70.7074C223.02 71.0504 223.447 71.4545 223.816 71.9092L223.945 72.2872C223.165 73.4823 222.068 74.4374 220.777 75.0463C219.447 75.7115 218.018 76.0289 216.499 76.0289C214.503 76.0289 212.916 75.394 211.676 74.1618C210.437 72.9297 209.839 70.9568 209.839 68.3263L209.968 62.7477V53.6692L208.985 53.639L206.672 53.6692L206.256 53.571C206.139 53.419 206.073 53.2338 206.067 53.0418L206.128 51.53L206.105 51.6132Z" fill="#2E2E2E"/>
</svg>
