<svg width="240" height="50" viewBox="0 0 240 50" fill="none" xmlns="http://www.w3.org/2000/svg">
<g clip-path="url(#clip0_16_178)">
<path d="M159.545 0.654663H201.348V8.37056H184.765V48.9628H176.473V8.37056H159.545V0.654663Z" fill="#2E2E2E"/>
<path d="M90.7931 0.654663V8.37056H57.2845V20.7831H84.2321V28.4989H57.2845V41.247H90.7931V48.9628H48.9929V8.37056H48.9894V0.654663H90.7931Z" fill="#2E2E2E"/>
<path d="M111.667 0.674805H100.816L139.682 48.983H150.565L131.13 24.8455L150.534 0.711661L139.682 0.72843L125.697 18.0983L111.667 0.674805Z" fill="#2E2E2E"/>
<path d="M122.802 35.1817L117.368 28.4252L100.785 49.0199H111.667L122.802 35.1817Z" fill="#2E2E2E"/>
<path fill-rule="evenodd" clip-rule="evenodd" d="M49.2835 48.9628L10.3645 0.634521H0V48.9427H8.29163V10.9604L38.867 48.9628H49.2835Z" fill="#2E2E2E"/>
<path d="M203.212 48.6678C202.605 48.6678 202.089 48.4575 201.656 48.0367C201.224 47.616 201.01 47.1066 201.015 46.5032C201.01 45.9164 201.224 45.4126 201.656 44.9918C202.089 44.5711 202.605 44.3607 203.212 44.3607C203.797 44.3607 204.308 44.5711 204.74 44.9918C205.179 45.4126 205.397 45.9164 205.403 46.5032C205.397 46.9018 205.296 47.2672 205.094 47.5938C204.886 47.926 204.623 48.1862 204.291 48.3744C203.965 48.5682 203.605 48.6678 203.212 48.6678Z" fill="#2E2E2E"/>
<path d="M217.364 28.3169H221.039V42.4728C221.033 43.7738 220.752 44.8866 220.202 45.8222C219.646 46.7578 218.876 47.4719 217.887 47.9757C216.904 48.4739 215.752 48.7286 214.443 48.7286C213.246 48.7286 212.173 48.5127 211.218 48.092C210.263 47.6712 209.505 47.0401 208.949 46.2097C208.386 45.3792 208.111 44.344 208.111 43.1039H211.792C211.797 43.6465 211.921 44.117 212.156 44.5101C212.392 44.9031 212.718 45.202 213.134 45.4124C213.555 45.6228 214.039 45.728 214.583 45.728C215.173 45.728 215.679 45.6062 216.089 45.3571C216.499 45.1135 216.814 44.7481 217.033 44.2609C217.246 43.7794 217.359 43.1814 217.364 42.4728V28.3169Z" fill="#2E2E2E"/>
<path d="M236.157 33.853C236.067 32.995 235.674 32.3251 234.989 31.849C234.297 31.3673 233.404 31.1293 232.308 31.1293C231.539 31.1293 230.876 31.2456 230.326 31.4725C229.775 31.705 229.348 32.015 229.056 32.4081C228.764 32.8012 228.618 33.2496 228.606 33.7535C228.606 34.1742 228.707 34.5395 228.904 34.8441C229.101 35.154 229.364 35.4143 229.707 35.6247C230.044 35.8405 230.421 36.0177 230.831 36.1616C231.247 36.3056 231.663 36.4274 232.078 36.527L233.994 36.9976C234.764 37.1747 235.511 37.4128 236.225 37.7173C236.938 38.0163 237.584 38.3982 238.151 38.8577C238.719 39.3172 239.169 39.8708 239.5 40.5186C239.831 41.1663 240 41.9247 240 42.7994C240 43.9786 239.697 45.0139 239.084 45.9107C238.472 46.802 237.59 47.4996 236.432 48.0034C235.28 48.5017 233.887 48.7563 232.247 48.7563C230.663 48.7563 229.28 48.5128 228.118 48.0256C226.949 47.5439 226.039 46.8353 225.381 45.9052C224.724 44.9752 224.37 43.8402 224.32 42.506H227.96C228.011 43.2035 228.236 43.7849 228.618 44.2555C229.005 44.7205 229.511 45.0637 230.129 45.2962C230.753 45.5232 231.449 45.6395 232.219 45.6395C233.022 45.6395 233.73 45.5177 234.342 45.2796C234.949 45.0416 235.427 44.7095 235.77 44.2776C236.118 43.8513 236.292 43.3475 236.298 42.7718C236.292 42.2459 236.134 41.8084 235.831 41.4652C235.522 41.122 235.095 40.8341 234.55 40.6016C234 40.3691 233.359 40.1587 232.629 39.976L230.303 39.3892C228.623 38.9629 227.292 38.3152 226.319 37.446C225.342 36.5769 224.859 35.4254 224.859 33.9804C224.859 32.7957 225.185 31.7549 225.842 30.8636C226.494 29.9723 227.387 29.2803 228.517 28.7875C229.651 28.2893 230.932 28.0457 232.359 28.0457C233.809 28.0457 235.078 28.2893 236.174 28.7875C237.269 29.2803 238.129 29.9668 238.752 30.8414C239.376 31.7161 239.702 32.7182 239.719 33.853H236.157Z" fill="#2E2E2E"/>
</g>
<defs>
<clipPath id="clip0_16_178">
<rect width="240" height="48.731" fill="white" transform="translate(0 0.634521)"/>
</clipPath>
</defs>
</svg>
