<svg width="248" height="120" viewBox="0 0 248 120" fill="none" xmlns="http://www.w3.org/2000/svg">
<g filter="url(#filter0_d_3_152)">
<path d="M224.804 50.2083C224.221 50.2083 223.654 50.3287 223.152 50.6128L207.267 59.7862C206.239 60.3787 205.614 61.4972 205.614 62.6873V81.0009C205.614 82.1901 206.239 83.3072 207.267 83.9011L211.415 86.2959C213.431 87.2892 214.174 87.2737 215.091 87.2737C218.075 87.2737 219.779 85.4629 219.779 82.3162V64.2384C219.779 63.9829 219.558 63.8001 219.307 63.8001H217.317C217.062 63.8001 216.845 63.9829 216.845 64.2384V82.3162C216.845 83.7108 215.392 85.1137 213.034 83.9348L208.717 81.4054C208.564 81.3225 208.447 81.1758 208.447 81.0009V62.6868C208.447 62.5134 208.563 62.3367 208.717 62.2486L224.568 53.1093C224.64 53.0675 224.721 53.0454 224.804 53.0454C224.887 53.0454 224.969 53.0675 225.04 53.1093L240.892 62.249C241.043 62.34 241.162 62.5083 241.162 62.6878V81.0014C241.162 81.1762 241.074 81.3553 240.926 81.4397L225.04 90.5793C224.905 90.6604 224.717 90.6604 224.568 90.5793L220.487 88.1512C220.425 88.1175 220.356 88.0999 220.285 88.0999C220.215 88.0999 220.145 88.1175 220.083 88.1512C218.957 88.7897 218.745 88.8637 217.688 89.2303C217.428 89.3212 217.033 89.4623 217.823 89.9053L223.152 93.0412C223.654 93.3311 224.225 93.4825 224.805 93.48C225.385 93.4836 225.955 93.3323 226.457 93.0417L242.342 83.9015C243.37 83.3039 243.995 82.1906 243.995 81.0014V62.6873C243.995 61.4976 243.37 60.3811 242.342 59.7872L226.457 50.6137C225.959 50.3292 225.388 50.2087 224.805 50.2087L224.804 50.2083Z" fill="#2E2E2E"/>
<path d="M229.055 63.2942C224.531 63.2942 221.837 65.2193 221.837 68.4209C221.837 71.8934 224.511 72.8478 228.853 73.2772C234.046 73.7858 234.451 74.5484 234.451 75.5708C234.451 77.344 233.037 78.1001 229.696 78.1001C225.497 78.1001 224.575 77.052 224.266 74.9637C224.229 74.7397 224.056 74.5587 223.827 74.5587H221.77C221.517 74.5587 221.298 74.7772 221.298 75.0312C221.298 77.7045 222.752 80.8658 229.696 80.8658C234.722 80.8658 237.622 78.8928 237.622 75.4358C237.622 72.0092 235.28 71.089 230.404 70.4445C225.477 69.7925 225.008 69.4733 225.008 68.3197C225.008 67.3672 225.406 66.0931 229.055 66.0931C232.314 66.0931 233.519 66.7962 234.013 68.9942C234.056 69.2004 234.238 69.365 234.451 69.365H236.509C236.635 69.365 236.758 69.2872 236.846 69.1962C236.932 69.0992 236.993 68.99 236.981 68.8592C236.662 65.0745 234.138 63.2942 229.055 63.2942Z" fill="#2E2E2E"/>
<path d="M131.416 26.1949C131.239 26.195 131.064 26.2414 130.91 26.3295C130.757 26.4191 130.63 26.5471 130.541 26.7009C130.452 26.8547 130.405 27.029 130.404 27.2065V53.0074C130.404 53.2605 130.287 53.4874 130.067 53.6144C129.96 53.6771 129.838 53.7101 129.713 53.7101C129.589 53.7101 129.467 53.6771 129.359 53.6144L125.143 51.1863C124.836 51.0084 124.487 50.9147 124.131 50.9147C123.776 50.9147 123.427 51.0084 123.119 51.1863L106.29 60.8993C105.661 61.2626 105.278 61.9605 105.278 62.6871V82.1135C105.278 82.8391 105.661 83.5038 106.29 83.8671L123.119 93.5805C123.427 93.7589 123.776 93.8529 124.131 93.8529C124.487 93.8529 124.836 93.7589 125.143 93.5805L141.973 83.8671C142.281 83.6898 142.537 83.4342 142.714 83.1263C142.892 82.8184 142.985 82.469 142.985 82.1135V33.6823C142.984 33.3184 142.887 32.9612 142.704 32.6471C142.52 32.333 142.256 32.0733 141.939 31.8945L131.922 26.2957C131.765 26.208 131.591 26.1926 131.416 26.1949ZM23.1539 50.4443C22.8332 50.457 22.5314 50.5132 22.2435 50.6801L5.41355 60.3935C5.10526 60.5706 4.8493 60.8261 4.67164 61.1341C4.49399 61.4421 4.40095 61.7916 4.40199 62.1471L4.43574 88.2185C4.43574 88.5809 4.62277 88.9179 4.94152 89.0951C5.09433 89.1869 5.26925 89.2354 5.44753 89.2354C5.62581 89.2354 5.80073 89.1869 5.95355 89.0951L15.9365 83.3618C16.5689 82.9859 16.9818 82.3324 16.9818 81.6077V69.4324C16.9818 68.7059 17.3639 68.0393 17.9939 67.6784L22.2431 65.2165C22.5503 65.0378 22.8997 64.9446 23.2551 64.9465C23.602 64.9465 23.9582 65.0332 24.2667 65.2165L28.5164 67.6784C28.8249 67.8553 29.0811 68.1108 29.2589 68.4189C29.4367 68.727 29.5296 69.0767 29.5284 69.4324V81.6073C29.5284 82.3319 29.9456 82.9901 30.5737 83.3613L40.5567 89.0951C40.7095 89.1869 40.8844 89.2354 41.0627 89.2354C41.241 89.2354 41.4159 89.1869 41.5687 89.0951C41.7225 89.0061 41.8503 88.8782 41.9391 88.7243C42.0279 88.5703 42.0748 88.3958 42.075 88.218L42.1078 62.1471C42.1098 61.7914 42.0171 61.4415 41.8394 61.1334C41.6616 60.8252 41.4051 60.5699 41.0962 60.3935L24.2667 50.6801C23.9821 50.5132 23.6793 50.4574 23.3564 50.4443H23.1539ZM174.384 50.6801C174.032 50.6801 173.688 50.7691 173.372 50.9501L156.543 60.6635C156.235 60.8408 155.979 61.0963 155.801 61.4042C155.623 61.7122 155.53 62.0616 155.531 62.4171V81.8435C155.531 82.5743 155.942 83.2362 156.576 83.5976L173.271 93.1085C173.887 93.4601 174.64 93.4868 175.261 93.1413L185.379 87.5093C185.7 87.3312 185.917 86.9984 185.918 86.6327C185.92 86.4547 185.874 86.2794 185.785 86.1252C185.696 85.971 185.568 85.8434 185.413 85.7557L168.482 76.0423C168.165 75.8613 167.942 75.4952 167.942 75.1315V69.0612C167.942 68.6979 168.167 68.3651 168.482 68.1841L173.743 65.1485C173.897 65.0595 174.071 65.0126 174.249 65.0126C174.427 65.0126 174.601 65.0595 174.755 65.1485L180.016 68.1841C180.17 68.2727 180.298 68.4004 180.387 68.5543C180.476 68.7082 180.522 68.8829 180.522 69.0607V73.8499C180.522 74.0276 180.568 74.2023 180.657 74.3563C180.746 74.5102 180.874 74.6379 181.028 74.7265C181.343 74.9088 181.725 74.9093 182.039 74.7265L192.124 68.8591C192.432 68.6811 192.687 68.4254 192.865 68.1175C193.043 67.8097 193.136 67.4605 193.136 67.1051V62.4176C193.136 61.6934 192.752 61.0273 192.124 60.6635L175.396 50.9501C175.088 50.7722 174.739 50.6787 174.384 50.6801ZM124.064 65.1827C124.152 65.1827 124.255 65.2043 124.334 65.2498L130.101 68.5887C130.258 68.6791 130.371 68.8465 130.371 69.0269V75.7048C130.371 75.8862 130.259 76.053 130.101 76.1435L124.334 79.4824C124.257 79.5264 124.169 79.5495 124.081 79.5495C123.992 79.5495 123.905 79.5264 123.828 79.4824L118.061 76.1435C117.904 76.0526 117.791 75.8862 117.791 75.7048V69.0269C117.791 68.846 117.904 68.6801 118.061 68.5887L123.828 65.2502C123.899 65.2061 123.981 65.1829 124.064 65.1832L124.064 65.1827Z" fill="#2E2E2E"/>
<path d="M73.7101 50.5789C73.3594 50.5789 73.0126 50.6679 72.6985 50.8489L55.869 60.5285C55.2394 60.8909 54.8569 61.5903 54.8569 62.3159V81.7423C54.8569 82.4689 55.2399 83.1326 55.869 83.4964L72.6985 93.2093C73.0058 93.3879 73.3549 93.4819 73.7103 93.4819C74.0657 93.4819 74.4148 93.3879 74.7221 93.2093L91.5516 83.4964C91.8597 83.3189 92.1155 83.0633 92.2931 82.7553C92.4708 82.4473 92.5639 82.0978 92.5632 81.7423V62.3159C92.5632 61.5893 92.1807 60.8909 91.5516 60.5285L74.7221 50.8489C74.4145 50.6712 74.0653 50.578 73.7101 50.5789ZM174.35 67.9146C174.283 67.9146 174.209 67.9146 174.148 67.9484L170.911 69.837C170.85 69.8705 170.8 69.9194 170.764 69.9786C170.729 70.0379 170.709 70.1054 170.708 70.1745V73.8842C170.708 74.0239 170.789 74.1518 170.911 74.2217L174.148 76.0765C174.27 76.1468 174.399 76.1468 174.519 76.0765L177.757 74.2212C177.817 74.1875 177.867 74.1387 177.903 74.0796C177.938 74.0205 177.958 73.9531 177.959 73.8842V70.174C177.958 70.1051 177.938 70.0377 177.903 69.9786C177.867 69.9195 177.817 69.8707 177.757 69.837L174.519 67.9479C174.459 67.9128 174.418 67.9146 174.35 67.9146Z" fill="#2E2E2E"/>
</g>
<defs>
<filter id="filter0_d_3_152" x="0" y="0" width="248" height="128" filterUnits="userSpaceOnUse" color-interpolation-filters="sRGB">
<feFlood flood-opacity="0" result="BackgroundImageFix"/>
<feColorMatrix in="SourceAlpha" type="matrix" values="0 0 0 0 0 0 0 0 0 0 0 0 0 0 0 0 0 0 127 0" result="hardAlpha"/>
<feOffset dy="4"/>
<feGaussianBlur stdDeviation="2"/>
<feComposite in2="hardAlpha" operator="out"/>
<feColorMatrix type="matrix" values="0 0 0 0 0 0 0 0 0 0 0 0 0 0 0 0 0 0 0.25 0"/>
<feBlend mode="normal" in2="BackgroundImageFix" result="effect1_dropShadow_3_152"/>
<feBlend mode="normal" in="SourceGraphic" in2="effect1_dropShadow_3_152" result="shape"/>
</filter>
</defs>
</svg>
