<svg width="240" height="120" viewBox="0 0 240 120" fill="none" xmlns="http://www.w3.org/2000/svg">
<path d="M63.9533 69.2577C69.0939 69.2577 73.2611 65.0905 73.2611 59.95C73.2611 54.8094 69.0939 50.6422 63.9533 50.6422C58.8128 50.6422 54.6456 54.8094 54.6456 59.95C54.6456 65.0905 58.8128 69.2577 63.9533 69.2577Z" fill="#2E2E2E"/>
<path d="M63.9533 94.1785C71.2594 101.284 78.4654 105.488 84.2702 105.488C86.1718 105.488 87.9733 105.088 89.4746 104.187C94.6789 101.184 96.5805 93.6781 94.779 82.9691C94.4788 81.0675 94.0784 79.166 93.578 77.1643C95.5797 76.5638 97.3812 75.9633 99.1827 75.3628C109.291 71.4595 114.896 66.055 114.896 60.1501C114.896 54.1451 109.291 48.7406 99.1827 44.9374C97.3812 44.2369 95.5797 43.6364 93.578 43.1359C94.0784 41.1343 94.4788 39.2327 94.779 37.3311C96.4804 26.422 94.5788 18.8157 89.3745 15.8132C87.8733 14.9124 86.0717 14.5121 84.1702 14.5121C78.4654 14.5121 71.1593 18.7156 63.8532 25.8215C56.6472 18.7156 49.4412 14.5121 43.6364 14.5121C41.7348 14.5121 39.9333 14.9124 38.432 15.8132C33.2277 18.8157 31.3261 26.3219 33.1276 37.0308C33.4279 38.9324 33.8282 40.834 34.3286 42.8357C32.327 43.4362 30.5255 44.0367 28.724 44.6372C18.6155 48.5404 13.0109 53.9449 13.0109 59.8499C13.0109 65.8549 18.6155 71.2594 28.724 75.0625C30.5255 75.7631 32.327 76.3636 34.3286 76.864C33.8282 78.8657 33.4279 80.7673 33.1276 82.6689C31.4262 93.3778 33.3278 100.984 38.432 103.887C39.9333 104.787 41.7348 105.188 43.6364 105.188C49.4412 105.388 56.6472 101.184 63.9533 94.1785ZM58.3486 80.6672C60.1501 80.7673 62.0517 80.7673 63.9533 80.7673C65.8549 80.7673 67.7565 80.7673 69.558 80.6672C67.7565 83.0692 65.8549 85.271 63.9533 87.3728C62.0517 85.271 60.1501 83.0692 58.3486 80.6672ZM45.9383 70.3586C46.9391 72.06 47.8399 73.6614 48.9408 75.2627C45.8382 74.8624 42.9358 74.362 40.1335 73.7615C41.0342 71.0592 42.035 68.2569 43.236 65.4545C44.0367 67.0559 44.9375 68.7573 45.9383 70.3586ZM40.1335 46.2385C42.9358 45.638 45.8382 45.1376 48.9408 44.7373C47.94 46.3386 46.9391 47.9399 45.9383 49.6414C44.9375 51.3428 44.0367 52.9441 43.236 54.6455C41.935 51.7431 40.9341 48.9408 40.1335 46.2385ZM45.6381 59.95C46.9391 57.2477 48.3403 54.5454 49.9416 51.8432C51.4429 49.241 53.1443 46.6389 54.8457 44.0367C57.8482 43.8365 60.8507 43.7364 63.9533 43.7364C67.156 43.7364 70.1585 43.8365 73.0609 44.0367C74.8624 46.6389 76.4637 49.241 77.965 51.8432C79.5663 54.5454 80.9675 57.2477 82.2686 59.95C80.9675 62.6522 79.5663 65.3545 77.965 68.0567C76.4637 70.6589 74.7623 73.261 73.0609 75.8632C70.0584 76.0634 67.0559 76.1635 63.9533 76.1635C60.7506 76.1635 57.7481 76.0634 54.8457 75.8632C53.0442 73.261 51.4429 70.6589 49.9416 68.0567C48.3403 65.3545 46.9391 62.6522 45.6381 59.95ZM84.7707 54.5454L82.0684 49.5413C81.0676 47.8399 80.1668 46.2385 79.0659 44.6372C82.1685 45.0375 85.0709 45.5379 87.8733 46.1384C86.9725 48.9408 85.9717 51.7431 84.7707 54.5454ZM84.7707 65.3545C85.9717 68.1568 86.9725 70.9591 87.8733 73.6614C85.0709 74.2619 82.1685 74.7623 79.0659 75.1626C80.0667 73.5613 81.0676 71.96 82.0684 70.2585C82.9692 68.7573 83.8699 67.0559 84.7707 65.3545ZM87.0726 100.083C86.2719 100.584 85.2711 100.784 84.1702 100.784C79.2661 100.784 73.161 96.7806 67.156 90.7756C70.0584 87.6731 72.8607 84.1701 75.6631 80.2669C80.367 79.8665 84.8707 79.166 89.0742 78.1651C89.5747 79.9666 89.8749 81.7681 90.1752 83.5696C91.5763 92.0767 90.4754 98.1818 87.0726 100.083ZM92.2769 47.3394C103.486 50.5421 110.192 55.4462 110.192 59.95C110.192 63.8532 105.588 67.7565 97.4813 70.859C95.8799 71.4595 94.0784 72.06 92.2769 72.5605C90.9758 68.457 89.3745 64.2535 87.3728 59.95C89.3745 55.6464 91.0759 51.4429 92.2769 47.3394ZM84.2702 19.1159C85.3712 19.1159 86.2719 19.3161 87.1727 19.8165C90.4754 21.7181 91.6764 27.7231 90.2753 36.3303C89.975 38.0317 89.5747 39.8332 89.1743 41.7348C84.9708 40.834 80.4671 40.1334 75.7632 39.633C73.0609 35.7298 70.1585 32.2268 67.2561 29.1243C73.2611 23.2193 79.3662 19.1159 84.2702 19.1159ZM69.558 39.2327C67.7565 39.1326 65.8549 39.1326 63.9533 39.1326C62.0517 39.1326 60.1501 39.1326 58.3486 39.2327C60.1501 36.8307 62.0517 34.6288 63.9533 32.5271C65.8549 34.6288 67.7565 36.9308 69.558 39.2327ZM40.8341 19.8165C41.6347 19.3161 42.6355 19.1159 43.7365 19.1159C48.6406 19.1159 54.7456 23.1193 60.7506 29.1243C57.8482 32.2268 55.0459 35.7298 52.2436 39.633C47.5396 40.0334 43.0359 40.7339 38.8324 41.7348C38.332 39.9333 38.0317 38.1318 37.7315 36.3303C36.3303 27.8232 37.4312 21.8182 40.8341 19.8165ZM35.6297 72.5605C24.4204 69.3578 17.7148 64.4537 17.7148 59.95C17.7148 56.0467 22.3186 52.1434 30.4254 49.0409C32.0267 48.4404 33.8282 47.8399 35.6297 47.3394C36.9308 51.4429 38.5321 55.6464 40.5338 59.95C38.5321 64.2535 36.8307 68.5571 35.6297 72.5605ZM37.7315 83.5696C38.0317 81.8682 38.432 80.0667 38.8324 78.1651C43.0359 79.0659 47.5396 79.7665 52.2436 80.2669C54.9458 84.1701 57.8482 87.6731 60.7506 90.7756C54.7456 96.6806 48.6406 100.784 43.7365 100.784C42.6355 100.784 41.7348 100.584 40.8341 100.083C37.4312 98.1818 36.3303 92.0767 37.7315 83.5696Z" fill="#2E2E2E"/>
<path d="M148.524 59.6368C150.726 56.9346 150.826 53.9321 149.625 50.9296C148.424 47.9271 145.922 46.5259 142.819 46.4258C139.116 46.3257 135.313 46.4258 131.61 46.4258H130.909V72.3474H133.912V62.5393H138.615C139.216 62.5393 139.716 62.7394 140.017 63.2398L146.022 72.5476C146.122 72.7478 146.422 73.048 146.622 73.048H150.525C148.123 69.3449 145.821 65.842 143.419 62.239C145.521 61.9388 147.323 61.2382 148.524 59.6368ZM133.912 59.4367V49.5284H135.012C137.314 49.5284 139.716 49.4283 142.018 49.6285C144.721 49.7286 146.622 51.8303 146.622 54.5326C146.622 57.2348 144.42 59.3366 141.718 59.4367C139.316 59.5368 136.914 59.4367 133.912 59.4367ZM172.644 60.7378C171.042 53.7319 164.637 51.9304 159.733 54.1323C155.93 55.8337 154.228 59.1364 154.128 63.2398C154.028 66.3424 154.929 69.1448 157.331 71.2465C160.033 73.6485 163.336 73.9488 166.739 73.3483C168.64 72.9479 170.342 72.0472 171.643 70.646C171.143 69.9454 170.642 69.2449 170.142 68.6443C167.339 71.0464 164.237 71.847 160.834 70.2457C158.632 69.1448 157.531 66.4425 157.331 64.4408H172.844V63.1398C172.944 62.239 172.844 61.4383 172.644 60.7378ZM157.531 62.3391C157.231 59.3366 160.233 56.1339 163.536 56.1339C167.339 56.0338 169.741 58.3358 169.842 62.3391H157.531ZM188.257 53.6318C186.756 53.3316 185.154 53.2315 183.653 53.3316C181.251 53.5318 179.149 54.6327 177.448 56.4342C177.948 57.1348 178.349 57.8353 178.949 58.636C179.149 58.4358 179.349 58.2357 179.55 58.1356C181.151 56.6343 183.053 55.8337 185.354 56.0338C187.156 56.1339 188.857 56.7344 189.358 58.5359C189.758 59.9371 189.658 61.4383 189.758 62.9396C189.458 62.9396 189.358 62.8395 189.258 62.7394C186.856 60.7378 184.153 60.3374 181.251 61.038C178.549 61.7386 176.847 63.8403 176.647 66.5426C176.447 69.6452 177.848 71.9471 180.55 73.048C182.252 73.7486 184.153 73.7486 185.955 73.3483C187.356 73.048 187.957 72.2474 189.958 71.1464V72.4475H192.761C192.761 68.4442 192.861 63.5401 192.761 58.9363C192.761 56.0338 191.059 54.2323 188.257 53.6318ZM189.658 66.2423C189.558 66.5426 189.658 66.8428 189.658 67.1431C189.658 69.2448 189.158 69.9454 187.156 70.7461C185.755 71.2465 184.254 71.4467 182.752 70.9463C181.051 70.4458 179.85 68.9446 179.85 67.2432C179.75 65.5418 180.851 63.8403 182.552 63.3399C184.854 62.5393 186.956 63.0397 188.857 64.4408C189.458 64.9413 189.858 65.4417 189.658 66.2423ZM205.271 56.3341C207.873 55.5334 210.275 56.0338 212.077 58.2357L212.377 58.4358C213.078 57.8353 213.678 57.2348 214.479 56.5343C214.178 56.234 214.078 56.0338 213.878 55.7336C210.976 52.631 205.271 52.2307 201.768 54.7328C196.864 58.3358 196.964 65.3416 199.366 69.0447C201.668 72.5476 204.971 73.7486 208.874 73.2482C211.176 72.9479 213.078 71.847 214.579 69.9454C213.878 69.3449 213.178 68.7444 212.477 68.0438C212.277 68.244 212.177 68.3441 212.077 68.5443C209.374 71.5468 204.871 71.2465 202.469 68.0438C201.068 66.1423 200.767 63.9404 201.168 61.7386C201.368 59.2365 202.669 57.2348 205.271 56.3341ZM226.088 69.9454C225.888 70.0455 225.788 70.1456 225.788 70.1456C224.987 70.7461 224.187 70.8462 223.286 70.5459C222.385 70.1456 222.285 69.3449 222.185 68.5443V57.1348C222.185 56.9346 222.185 57.3349 222.285 56.3341H226.088V53.3316H222.085V48.3274H219.083V53.7319H216.48C216.28 53.7319 215.98 53.9321 215.98 54.1323C215.88 54.8328 215.98 55.3333 215.98 56.3341H219.183V69.1448C219.183 70.7461 219.583 72.1473 220.984 72.9479C222.485 73.8487 225.388 73.6485 226.689 72.5476C226.889 72.4475 226.989 72.0472 226.989 71.9471C226.689 71.3466 226.389 70.646 226.088 69.9454Z" fill="#2E2E2E"/>
</svg>
