<svg width="364" height="120" viewBox="0 0 364 120" fill="none" xmlns="http://www.w3.org/2000/svg">
<g filter="url(#filter0_d_15_124)">
<g clip-path="url(#clip0_15_124)">
<path d="M94.2344 10H13.7656C8.37222 10 4 14.3722 4 19.7656V100.234C4 105.628 8.37222 110 13.7656 110H94.2344C99.6278 110 104 105.628 104 100.234V19.7656C104 14.3722 99.6278 10 94.2344 10Z" fill="#2E2E2E"/>
<path d="M94.2344 10H13.7656C8.37222 10 4 14.3722 4 19.7656V100.234C4 105.628 8.37222 110 13.7656 110H94.2344C99.6278 110 104 105.628 104 100.234V19.7656C104 14.3722 99.6278 10 94.2344 10Z" fill="#2E2E2E"/>
<path fill-rule="evenodd" clip-rule="evenodd" d="M65.9021 89.575V99.3525C67.4916 100.167 69.3715 100.778 71.5418 101.186C73.7121 101.593 75.9994 101.797 78.4041 101.797C80.7477 101.797 82.9738 101.573 85.083 101.125C87.1922 100.677 89.0416 99.9381 90.6311 98.9094C92.2205 97.8809 93.4789 96.5363 94.4061 94.8762C95.3332 93.216 95.7969 91.1639 95.7969 88.7195C95.7969 86.9473 95.532 85.3941 95.0022 84.06C94.4723 82.7258 93.7082 81.5393 92.7096 80.5004C91.7111 79.4615 90.5139 78.5295 89.118 77.7045C87.7221 76.8795 86.1479 76.1004 84.3953 75.3672C83.1115 74.8375 81.9602 74.3232 80.9412 73.8242C79.9223 73.325 79.0562 72.8158 78.343 72.2965C77.6297 71.777 77.0795 71.227 76.6924 70.6465C76.3053 70.0658 76.1115 69.409 76.1115 68.6756C76.1115 68.0035 76.2848 67.3975 76.6313 66.8576C76.9777 66.3178 77.4668 65.8545 78.0984 65.4674C78.7303 65.0805 79.5045 64.7799 80.4215 64.566C81.3387 64.3521 82.3574 64.2453 83.4783 64.2453C84.2934 64.2453 85.1543 64.3064 86.0611 64.4285C86.968 64.5508 87.8799 64.7393 88.7971 64.9937C89.7141 65.2484 90.6055 65.5693 91.4717 65.9563C92.3377 66.3434 93.1375 66.7914 93.8711 67.3008V58.1648C92.3836 57.5945 90.7584 57.1719 88.9957 56.8969C87.233 56.6219 85.2104 56.4844 82.9281 56.4844C80.6049 56.4844 78.4041 56.734 76.3256 57.233C74.2471 57.732 72.4182 58.5111 70.8387 59.5703C69.2594 60.6297 68.0113 61.9791 67.0943 63.6189C66.1773 65.2586 65.7188 67.2191 65.7188 69.5006C65.7188 72.4135 66.5594 74.8986 68.2406 76.9561C69.9217 79.0133 72.474 80.7549 75.8977 82.1809C77.2426 82.7309 78.4959 83.2705 79.6574 83.8002C80.8189 84.3299 81.8227 84.8799 82.6682 85.4502C83.5139 86.0205 84.1812 86.6418 84.6705 87.3141C85.1596 87.9861 85.4041 88.75 85.4041 89.6057C85.4041 90.2371 85.2512 90.8227 84.9455 91.3625C84.6398 91.9023 84.1762 92.3707 83.5547 92.768C82.9332 93.1652 82.1588 93.4758 81.2316 93.6998C80.3043 93.924 79.2193 94.0359 77.9762 94.0359C75.8568 94.0359 73.758 93.6643 71.6793 92.9207C69.6008 92.1773 67.675 91.0621 65.9021 89.575ZM49.4648 65.4848H62.0078V57.4609H27.0469V65.4848H39.5285V101.211H49.4648V65.4848Z" fill="black"/>
</g>
<g clip-path="url(#clip1_15_124)">
<path d="M132.442 41.6312H119.953V80.3186H114.88V41.6312H102.416V37.0388H132.442V41.6312Z" fill="#2E2E2E"/>
<path d="M152.151 49.4169L137.936 85.263C135.404 91.658 131.842 94.8597 127.249 94.8597C125.962 94.8597 124.889 94.731 124.022 94.4649V90.027C125.086 90.3876 126.065 90.5678 126.949 90.5678C129.447 90.5678 131.318 89.0828 132.563 86.1042L135.035 80.25L122.966 49.4169H128.459L136.82 73.1941C136.923 73.4946 137.129 74.2843 137.455 75.5461H137.636C137.739 75.0654 137.936 74.3014 138.236 73.2542L147.018 49.4169H152.151Z" fill="#2E2E2E"/>
<path d="M160.245 75.855H160.125V94.5334H155.172V49.4167H160.125V54.8503H160.245C162.683 50.7472 166.237 48.6957 170.932 48.6957C174.915 48.6957 178.023 50.0777 180.254 52.8417C182.486 55.6057 183.602 59.3139 183.602 63.9663C183.602 69.1338 182.349 73.2798 179.834 76.3872C177.319 79.4945 173.877 81.0482 169.516 81.0482C165.507 81.0396 162.417 79.3142 160.245 75.855ZM160.125 63.3912V67.7089C160.125 70.2669 160.958 72.43 162.615 74.2154C164.271 76.0009 166.383 76.885 168.941 76.885C171.937 76.885 174.289 75.7348 175.988 73.4429C177.688 71.151 178.538 67.9578 178.538 63.8805C178.538 60.4384 177.739 57.743 176.151 55.7945C174.563 53.846 172.409 52.8674 169.696 52.8674C166.821 52.8674 164.503 53.8717 162.752 55.8718C161.001 57.8632 160.125 60.3697 160.125 63.3912Z" fill="#2E2E2E"/>
<path d="M213.628 66.1037H191.808C191.886 69.5458 192.813 72.1982 194.581 74.0695C196.349 75.9408 198.787 76.8764 201.886 76.8764C205.362 76.8764 208.564 75.7262 211.483 73.4343V78.0782C208.77 80.0525 205.173 81.0396 200.71 81.0396C196.341 81.0396 192.916 79.6404 190.418 76.8335C187.92 74.0266 186.675 70.078 186.675 64.9878C186.675 60.1809 188.04 56.258 190.761 53.2365C193.491 50.2064 196.873 48.6957 200.916 48.6957C204.959 48.6957 208.083 50.0004 210.298 52.6185C212.513 55.2366 213.62 58.8675 213.62 63.5114V66.1037H213.628ZM208.555 61.9062C208.538 59.0478 207.843 56.8246 206.487 55.2366C205.13 53.6486 203.242 52.8503 200.83 52.8503C198.495 52.8503 196.512 53.6829 194.881 55.3567C193.25 57.0306 192.246 59.2109 191.86 61.9062H208.555Z" fill="#2E2E2E"/>
<path d="M217.955 78.5673V72.593C218.581 73.1939 219.328 73.7432 220.204 74.2239C221.079 74.7046 221.998 75.1166 222.968 75.4428C223.938 75.769 224.908 76.0351 225.878 76.2154C226.856 76.3956 227.757 76.4901 228.581 76.4901C231.431 76.4901 233.569 75.9149 234.976 74.7561C236.384 73.5973 237.088 71.932 237.088 69.7603C237.088 68.5929 236.856 67.58 236.384 66.7131C235.912 65.8461 235.268 65.0564 234.436 64.3439C233.603 63.6315 232.624 62.9447 231.491 62.2924C230.358 61.64 229.139 60.9533 227.835 60.2237C226.453 59.4597 225.165 58.6872 223.972 57.8975C222.779 57.1163 221.732 56.2494 220.856 55.3051C219.972 54.3609 219.277 53.2879 218.77 52.0948C218.264 50.9016 218.015 49.4939 218.015 47.8887C218.015 45.9144 218.41 44.2062 219.199 42.747C219.989 41.2877 221.028 40.086 222.324 39.1418C223.611 38.1975 225.079 37.4937 226.727 37.0301C228.375 36.5666 230.058 36.3348 231.766 36.3348C235.672 36.3348 238.513 36.8499 240.298 37.8713V43.571C237.964 41.8027 234.959 40.9186 231.294 40.9186C230.281 40.9186 229.268 41.0388 228.255 41.262C227.242 41.4937 226.341 41.8714 225.551 42.395C224.762 42.9186 224.118 43.5882 223.62 44.4208C223.122 45.2449 222.873 46.2492 222.873 47.4423C222.873 48.5496 223.062 49.5025 223.44 50.3093C223.817 51.1162 224.375 51.8458 225.114 52.5154C225.852 53.1763 226.745 53.8201 227.809 54.4467C228.865 55.0734 230.084 55.7515 231.466 56.4983C232.882 57.2622 234.23 58.0691 235.5 58.9103C236.77 59.7516 237.886 60.6872 238.839 61.7173C239.792 62.7473 240.556 63.8804 241.114 65.125C241.672 66.3697 241.955 67.8032 241.955 69.4084C241.955 71.5372 241.569 73.3484 240.813 74.8248C240.049 76.3012 239.019 77.5029 237.723 78.43C236.427 79.3571 234.934 80.0266 233.234 80.4386C231.543 80.8506 229.757 81.0567 227.878 81.0567C227.251 81.0567 226.478 81.0052 225.56 80.8936C224.641 80.782 223.697 80.6189 222.744 80.4129C221.783 80.1983 220.882 79.9408 220.023 79.6317C219.156 79.297 218.478 78.945 217.955 78.5673Z" fill="#2E2E2E"/>
<path d="M268.299 78.9022C265.921 80.3271 263.106 81.0482 259.852 81.0482C255.449 81.0482 251.887 79.6147 249.183 76.7477C246.479 73.8807 245.123 70.1639 245.123 65.5973C245.123 60.507 246.582 56.4211 249.5 53.331C252.419 50.2408 256.307 48.6957 261.183 48.6957C263.895 48.6957 266.29 49.2021 268.368 50.2064V55.2795C266.076 53.6657 263.621 52.8674 261.003 52.8674C257.844 52.8674 255.251 54.0005 253.234 56.2666C251.217 58.5328 250.204 61.5028 250.204 65.1852C250.204 68.8076 251.157 71.666 253.054 73.7519C254.951 75.8378 257.509 76.8936 260.702 76.8936C263.398 76.8936 265.93 76.0009 268.308 74.2069V78.9022H268.299Z" fill="#2E2E2E"/>
<path d="M287.45 54.4211C286.583 53.7601 285.338 53.4253 283.707 53.4253C281.595 53.4253 279.827 54.4211 278.411 56.4125C276.994 58.404 276.282 61.1165 276.282 64.5586V80.3099H271.329V49.4081H276.282V55.7773H276.402C277.106 53.6056 278.179 51.906 279.63 50.6957C281.08 49.4768 282.694 48.8673 284.488 48.8673C285.776 48.8673 286.763 49.0047 287.45 49.2879V54.4211Z" fill="#2E2E2E"/>
<path d="M293.132 41.5711C292.248 41.5711 291.492 41.2707 290.866 40.6698C290.239 40.0689 289.93 39.305 289.93 38.3779C289.93 37.4509 290.239 36.6869 290.866 36.0689C291.492 35.4594 292.248 35.1504 293.132 35.1504C294.033 35.1504 294.806 35.4594 295.441 36.0689C296.076 36.6869 296.394 37.4509 296.394 38.3779C296.394 39.2621 296.076 40.0174 295.441 40.644C294.806 41.2535 294.033 41.5711 293.132 41.5711ZM295.544 80.3186H290.591V49.4167H295.544V80.3186Z" fill="#2E2E2E"/>
<path d="M303.527 75.855H303.407V94.5334H298.454V49.4167H303.407V54.8503H303.527C305.965 50.7472 309.519 48.6957 314.214 48.6957C318.197 48.6957 321.304 50.0777 323.536 52.8417C325.768 55.6057 326.884 59.3139 326.884 63.9663C326.884 69.1338 325.63 73.2798 323.115 76.3872C320.6 79.4945 317.158 81.0482 312.798 81.0482C308.789 81.0396 305.699 79.3142 303.527 75.855ZM303.407 63.3912V67.7089C303.407 70.2669 304.239 72.43 305.896 74.2154C307.553 76.0009 309.664 76.885 312.222 76.885C315.218 76.885 317.57 75.7348 319.27 73.4429C320.969 71.151 321.819 67.9578 321.819 63.8805C321.819 60.4384 321.021 57.743 319.433 55.7945C317.845 53.846 315.69 52.8674 312.978 52.8674C310.102 52.8674 307.785 53.8717 306.034 55.8718C304.282 57.8632 303.407 60.3697 303.407 63.3912Z" fill="#2E2E2E"/>
<path d="M345.416 80.0181C344.249 80.6619 342.712 80.9795 340.798 80.9795C335.39 80.9795 332.678 77.958 332.678 71.9235V53.6399H327.364V49.4167H332.678V41.8715L337.631 40.2749V49.4167H345.416V53.6399H337.631V71.048C337.631 73.1167 337.983 74.6017 338.687 75.4858C339.39 76.37 340.558 76.8163 342.189 76.8163C343.433 76.8163 344.515 76.473 345.416 75.7863V80.0181Z" fill="#2E2E2E"/>
</g>
</g>
<defs>
<filter id="filter0_d_15_124" x="0" y="0" width="368" height="128" filterUnits="userSpaceOnUse" color-interpolation-filters="sRGB">
<feFlood flood-opacity="0" result="BackgroundImageFix"/>
<feColorMatrix in="SourceAlpha" type="matrix" values="0 0 0 0 0 0 0 0 0 0 0 0 0 0 0 0 0 0 127 0" result="hardAlpha"/>
<feOffset dy="4"/>
<feGaussianBlur stdDeviation="2"/>
<feComposite in2="hardAlpha" operator="out"/>
<feColorMatrix type="matrix" values="0 0 0 0 0 0 0 0 0 0 0 0 0 0 0 0 0 0 0.25 0"/>
<feBlend mode="normal" in2="BackgroundImageFix" result="effect1_dropShadow_15_124"/>
<feBlend mode="normal" in="SourceGraphic" in2="effect1_dropShadow_15_124" result="shape"/>
</filter>
<clipPath id="clip0_15_124">
<rect width="100" height="100" fill="white" transform="translate(4 10)"/>
</clipPath>
<clipPath id="clip1_15_124">
<rect width="243" height="59.7178" fill="white" transform="translate(111 30)"/>
</clipPath>
</defs>
</svg>
